ISO-10303-21;
HEADER;
FILE_DESCRIPTION (( 'STEP AP214' ),
    '1' );
FILE_NAME ('LED.STEP',
    '2026-05-09T18:11:48',
    ( '' ),
    ( '' ),
    'SwSTEP 2.0',
    'SolidWorks 2025',
    '' );
FILE_SCHEMA (( 'AUTOMOTIVE_DESIGN' ));
ENDSEC;

DATA;
#1 = CARTESIAN_POINT ( 'NONE',  ( 1.189469652234747432, 0.000000000000000000, 18.19426002591141867 ) ) ;
#2 = CIRCLE ( 'NONE', #457, 1.500000000000000000 ) ;
#3 = DIRECTION ( 'NONE',  ( 0.000000000000000000, 0.000000000000000000, 1.000000000000000000 ) ) ;
#4 = VERTEX_POINT ( 'NONE', #100 ) ;
#5 = UNCERTAINTY_MEASURE_WITH_UNIT (LENGTH_MEASURE( 1.000000000000000082E-05 ), #521, 'distance_accuracy_value', 'NONE');
#6 = CARTESIAN_POINT ( 'NONE',  ( 2.711714818461893550, 52.60332689883659896, 26.30166344941830658 ) ) ;
#7 = CARTESIAN_POINT ( 'NONE',  ( -0.9941139337715241275, 3.460277244736445315E-16, -2.825530795610314172 ) ) ;
#8 = CARTESIAN_POINT ( 'NONE',  ( -3.852104597792695682E-05, 1.939024128516682403E-16, -1.583333357721349977 ) ) ;
#9 = CARTESIAN_POINT ( 'NONE',  ( -0.5412466886489493145, 1.481784420125533983E-15, -12.09968801745294975 ) ) ;
#10 = CARTESIAN_POINT ( 'NONE',  ( 2.766450457274120200, 0.000000000000000000, 0.000000000000000000 ) ) ;
#11 = ORIENTED_EDGE ( 'NONE', *, *, #94, .F. ) ;
#12 = CARTESIAN_POINT ( 'NONE',  ( 0.002274735637413429715, 0.000000000000000000, 2.416662693041531806 ) ) ;
#13 = CARTESIAN_POINT ( 'NONE',  ( -0.8883038768872704161, -1.666497768589462831E-15, 6.803993485100126470 ) ) ;
#14 = ORIENTED_EDGE ( 'NONE', *, *, #464, .T. ) ;
#15 = DIRECTION ( 'NONE',  ( -1.000000000000000000, -0.000000000000000000, -0.000000000000000000 ) ) ;
#16 = CARTESIAN_POINT ( 'NONE',  ( -0.8883038768872704161, -13.60798697020024939, 6.803993485100122030 ) ) ;
#17 = ORIENTED_EDGE ( 'NONE', *, *, #268, .T. ) ;
#18 = CARTESIAN_POINT ( 'NONE',  ( 0.06454586886587750094, -12.16569160355786927, 6.082845801778933748 ) ) ;
#19 = CARTESIAN_POINT ( 'NONE',  ( 2.766450457274120200, 0.000000000000000000, 26.54559799080610105 ) ) ;
#20 = CARTESIAN_POINT ( 'NONE',  ( 0.9309566020158096533, 2.768666236686708042E-15, -22.60787550022064707 ) ) ;
#21 = CARTESIAN_POINT ( 'NONE',  ( 0.01032457761036133063, -6.666598623572010496, 3.333299311786003916 ) ) ;
#22 = CARTESIAN_POINT ( 'NONE',  ( 0.6867326130578439436, -28.61875375264628119, -14.30937687632314770 ) ) ;
#23 = CARTESIAN_POINT ( 'NONE',  ( 0.6867326130578438326, 0.000000000000000000, 14.30937687632314415 ) ) ;
#24 = CARTESIAN_POINT ( 'NONE',  ( 0.2162776907041540908, -36.84590285260173204, -18.42295142630087312 ) ) ;
#25 = DIRECTION ( 'NONE',  ( 0.9999998931613688358, 0.000000000000000000, -0.0004622523670676833966 ) ) ;
#26 = CARTESIAN_POINT ( 'NONE',  ( 0.6867326130578438326, -3.504786517876458364E-15, 14.30937687632314415 ) ) ;
#27 = DIRECTION ( 'NONE',  ( 0.000000000000000000, 0.000000000000000000, 1.000000000000000000 ) ) ;
#28 = CARTESIAN_POINT ( 'NONE',  ( 1.675246347709663741, -6.428726525136042686E-15, 26.24726790455816428 ) ) ;
#29 = CARTESIAN_POINT ( 'NONE',  ( 2.748205244336714870, -52.92857295402036044, -26.46428647701019798 ) ) ;
#30 = DIRECTION ( 'NONE',  ( -0.9757377702739832293, 2.681271908627995496E-17, -0.2189424665540138926 ) ) ;
#31 = CARTESIAN_POINT ( 'NONE',  ( -0.5412466886489493145, 0.000000000000000000, 12.09968801745294975 ) ) ;
#32 = CARTESIAN_POINT ( 'NONE',  ( 1.237132475159802070, 48.34041942435009531, -24.17020971217504766 ) ) ;
#33 = CARTESIAN_POINT ( 'NONE',  ( 0.002274735637413429715, -5.919116463304269207E-16, 2.416662693041531806 ) ) ;
#34 = CARTESIAN_POINT ( 'NONE',  ( -0.9735415701906983132, 8.303995302818268698, -4.151997651409134349 ) ) ;
#35 = ADVANCED_FACE ( 'NONE', ( #189 ), #159, .T. ) ;
#36 = CARTESIAN_POINT ( 'NONE',  ( 1.790712687000136860, 0.000000000000000000, 0.000000000000000000 ) ) ;
#37 = CARTESIAN_POINT ( 'NONE',  ( -0.8883038768872704161, 8.332488842947314156E-16, -6.803993485100126470 ) ) ;
#38 = CARTESIAN_POINT ( 'NONE',  ( -0.9735415701906983132, 0.000000000000000000, 4.151997651409136125 ) ) ;
#39 = CARTESIAN_POINT ( 'NONE',  ( 1.506767343580682539, 3.119081333330940272E-15, -25.46923190835566686 ) ) ;
#40 = AXIS2_PLACEMENT_3D ( 'NONE', #10, #139, #53 ) ;
#41 = FACE_OUTER_BOUND ( 'NONE', #476, .T. ) ;
#42 = CARTESIAN_POINT ( 'NONE',  ( 1.562314575179147624, 51.45736918297988893, 25.72868459148994802 ) ) ;
#43 = B_SPLINE_CURVE_WITH_KNOTS ( 'NONE', 3,
 ( #520, #54, #331, #422, #7, #191, #523, #69, #37, #554, #404, #121, #544, #483, #116, #359, #125, #502, #305, #253, #496, #399 ),
 .UNSPECIFIED., .F., .F.,
 ( 4, 2, 2, 2, 2, 2, 2, 2, 2, 2, 4 ),
 ( 0.000000000000000000, 0.03125000000000001388, 0.06250000000000002776, 0.1250000000000000555, 0.2500000000000001110, 0.5000000000000002220, 0.7500000000000005551, 0.8750000000000005551, 0.9375000000000005551, 0.9687500000000003331, 1.000000000000000000 ),
 .UNSPECIFIED. ) ;
#44 = CARTESIAN_POINT ( 'NONE',  ( -3.852104597792695682E-05, 3.166666715442699953, 1.583333357721350199 ) ) ;
#45 = CARTESIAN_POINT ( 'NONE',  ( 0.06454586886587750094, 12.16569160355786927, -6.082845801778934636 ) ) ;
#46 = DIRECTION ( 'NONE',  ( 1.000000000000000000, 0.000000000000000000, 0.000000000000000000 ) ) ;
#47 = CARTESIAN_POINT ( 'NONE',  ( 2.657661304729749485, 52.11515327591443736, 26.05757663795722578 ) ) ;
#48 = CARTESIAN_POINT ( 'NONE',  ( 1.675246347709663963, 52.49453580911631434, 26.24726790455816428 ) ) ;
#49 = EDGE_CURVE ( 'NONE', #235, #103, #43, .T. ) ;
#50 = CARTESIAN_POINT ( 'NONE',  ( 2.498364286285163605, 50.64937714584790029, 25.32468857292395725 ) ) ;
#51 =( LENGTH_UNIT ( ) NAMED_UNIT ( * ) SI_UNIT ( .MILLI., .METRE. ) );
#52 = CARTESIAN_POINT ( 'NONE',  ( 0.6867326130578438326, 0.000000000000000000, 14.30937687632314415 ) ) ;
#53 = DIRECTION ( 'NONE',  ( 0.000000000000000000, 0.000000000000000000, 1.000000000000000000 ) ) ;
#54 = CARTESIAN_POINT ( 'NONE',  ( -1.000121475212736755, 2.158511818756828884E-16, -1.762558657940941798 ) ) ;
#55 = CARTESIAN_POINT ( 'NONE',  ( 2.766450457274120200, 0.000000000000000000, 26.54559799080610105 ) ) ;
#56 = CARTESIAN_POINT ( 'NONE',  ( -0.5412466886489493145, -2.963568840251067966E-15, 12.09968801745294975 ) ) ;
#57 = CARTESIAN_POINT ( 'NONE',  ( 1.733126233666433258, 53.01580198388334964, -26.50790099194167482 ) ) ;
#58 = CARTESIAN_POINT ( 'NONE',  ( 2.711714818461893994, 3.221024795558105632E-15, -26.30166344941830303 ) ) ;
#59 = CARTESIAN_POINT ( 'NONE',  ( -0.7153956443832218959, -19.96662313858990245, 9.983311569294945897 ) ) ;
#60 = ORIENTED_EDGE ( 'NONE', *, *, #288, .T. ) ;
#61 = CARTESIAN_POINT ( 'NONE',  ( 0.06454586886587748706, 7.449337640855488593E-16, -6.082845801778935524 ) ) ;
#62 = CARTESIAN_POINT ( 'NONE',  ( -0.9839687634046162534, 4.434977024556289681E-16, -3.621433565697548929 ) ) ;
#63 = ORIENTED_EDGE ( 'NONE', *, *, #480, .T. ) ;
#64 = CARTESIAN_POINT ( 'NONE',  ( 2.240068411940153936, 0.000000000000000000, 24.10166303160280776 ) ) ;
#65 = CARTESIAN_POINT ( 'NONE',  ( -0.9735415701906983132, -8.303995302818272251, 4.151997651409134349 ) ) ;
#66 = CARTESIAN_POINT ( 'NONE',  ( -3.852104597792695682E-05, -3.166666715442699953, 1.583333357721349310 ) ) ;
#67 = CARTESIAN_POINT ( 'NONE',  ( 0.2620152912651191879, -19.65769030968556663, 9.828845154842777987 ) ) ;
#68 = CARTESIAN_POINT ( 'NONE',  ( 2.766450457274120200, 53.09119598161218789, -26.54559799080609395 ) ) ;
#69 = CARTESIAN_POINT ( 'NONE',  ( -0.9312268414686823981, 7.033667298193452575E-16, -5.743425208877012800 ) ) ;
#70 = CARTESIAN_POINT ( 'NONE',  ( 2.657661304729749485, -52.11515327591443736, 26.05757663795720802 ) ) ;
#71 = CARTESIAN_POINT ( 'NONE',  ( -0.7153956443832218959, 0.000000000000000000, 9.983311569294951227 ) ) ;
#72 = CARTESIAN_POINT ( 'NONE',  ( 1.790712687000136860, -53.52908091472021113, -26.76454045736011977 ) ) ;
#73 = CARTESIAN_POINT ( 'NONE',  ( -3.852104597792695682E-05, -3.166666715442699953, -1.583333357721350643 ) ) ;
#74 = CARTESIAN_POINT ( 'NONE',  ( 2.498364286285163605, -50.64937714584791451, 25.32468857292394659 ) ) ;
#75 = CARTESIAN_POINT ( 'NONE',  ( -1.000121475212736755, 0.000000000000000000, 1.762558657940941798 ) ) ;
#76 = CARTESIAN_POINT ( 'NONE',  ( 1.342818427992043651, -49.38055871566441368, 24.69027935783219974 ) ) ;
#77 = PRESENTATION_LAYER_ASSIGNMENT (  '', '', ( #307 ) ) ;
#78 = EDGE_CURVE ( 'NONE', #341, #378, #2, .T. ) ;
#79 = CARTESIAN_POINT ( 'NONE',  ( 0.000000000000000000, -3.000000000000000000, 1.499999999999999334 ) ) ;
#80 = CARTESIAN_POINT ( 'NONE',  ( 2.766450457274120200, 3.250898161089310381E-15, -26.54559799080610105 ) ) ;
#81 = DIRECTION ( 'NONE',  ( 0.000000000000000000, 0.000000000000000000, 1.000000000000000000 ) ) ;
#82 = DIRECTION ( 'NONE',  ( -1.000000000000000000, -0.000000000000000000, -0.000000000000000000 ) ) ;
#83 = CARTESIAN_POINT ( 'NONE',  ( 2.498364286285164049, -6.202759760046974973E-15, 25.32468857292395725 ) ) ;
#84 = DIRECTION ( 'NONE',  ( -1.000000000000000000, -0.000000000000000000, -0.000000000000000000 ) ) ;
#85 = CARTESIAN_POINT ( 'NONE',  ( 1.562314575179147624, -51.45736918297988893, 25.72868459148993381 ) ) ;
#86 = CARTESIAN_POINT ( 'NONE',  ( 2.711714818461893550, -52.60332689883659896, -26.30166344941830658 ) ) ;
#87 = CLOSED_SHELL ( 'NONE', ( #355, #243, #35, #578, #528, #513, #199, #289 ) ) ;
#88 = CARTESIAN_POINT ( 'NONE',  ( -0.9996606229677894584, 4.059029323816376156, 2.029514661908188078 ) ) ;
#89 = CARTESIAN_POINT ( 'NONE',  ( -0.9312268414686823981, 0.000000000000000000, 5.743425208877012800 ) ) ;
#90 = AXIS2_PLACEMENT_3D ( 'NONE', #137, #373, #518 ) ;
#91 = CARTESIAN_POINT ( 'NONE',  ( -0.0001155631379337802064, 2.143131988107986849E-16, -1.750000073164049263 ) ) ;
#92 = CARTESIAN_POINT ( 'NONE',  ( 0.002274735637413429715, 4.833325386083062725, -2.416662693041531362 ) ) ;
#93 = CARTESIAN_POINT ( 'NONE',  ( 2.586256266561930417, 0.000000000000000000, 25.73198092103001855 ) ) ;
#94 = EDGE_CURVE ( 'NONE', #283, #378, #311, .T. ) ;
#95 = CARTESIAN_POINT ( 'NONE',  ( 1.774614254566054816, 2.661165056334082429E-15, -21.73006174667576929 ) ) ;
#96 = CARTESIAN_POINT ( 'NONE',  ( 2.586256266561930417, 3.151258807066017315E-15, -25.73198092103001855 ) ) ;
#97 = CARTESIAN_POINT ( 'NONE',  ( 1.675246347709663741, 3.214363262568021343E-15, -26.24726790455816428 ) ) ;
#98 = EDGE_LOOP ( 'NONE', ( #153, #532, #145, #584 ) ) ;
#99 = CARTESIAN_POINT ( 'NONE',  ( 0.6867326130578438326, 1.752393258938229182E-15, -14.30937687632314415 ) ) ;
#100 = CARTESIAN_POINT ( 'NONE',  ( 1.790712687000136860, 0.000000000000000000, 26.76454045736011622 ) ) ;
#101 = FILL_AREA_STYLE ('',( #157 ) ) ;
#102 = CARTESIAN_POINT ( 'NONE',  ( -0.8883038768872704161, -13.60798697020024939, -6.803993485100127359 ) ) ;
#103 = VERTEX_POINT ( 'NONE', #389 ) ;
#104 = CARTESIAN_POINT ( 'NONE',  ( 0.0004630025517351123599, 2.449293239893999001E-16, -1.999999707343613098 ) ) ;
#105 = CARTESIAN_POINT ( 'NONE',  ( -0.9312268414686823981, -1.406733459638690515E-15, 5.743425208877012800 ) ) ;
#106 = ORIENTED_EDGE ( 'NONE', *, *, #601, .F. ) ;
#107 = CARTESIAN_POINT ( 'NONE',  ( 2.748205244336714870, 0.000000000000000000, 26.46428647701018733 ) ) ;
#108 = CARTESIAN_POINT ( 'NONE',  ( -0.9965810728732781287, -5.120417313871397980, -2.560208656935699878 ) ) ;
#109 = VECTOR ( 'NONE', #487, 1000.000000000000000 ) ;
#110 = CARTESIAN_POINT ( 'NONE',  ( 0.2620152912651192434, 1.203686375819318532E-15, -9.828845154842783316 ) ) ;
#111 = CARTESIAN_POINT ( 'NONE',  ( -0.9735415701906983132, -1.016946126773105297E-15, 4.151997651409136125 ) ) ;
#112 = VECTOR ( 'NONE', #30, 1000.000000000000227 ) ;
#113 = CARTESIAN_POINT ( 'NONE',  ( 0.000000000000000000, 0.000000000000000000, 0.000000000000000000 ) ) ;
#114 = CARTESIAN_POINT ( 'NONE',  ( 2.657661304729749041, -6.382265564642232923E-15, 26.05757663795722578 ) ) ;
#115 = CARTESIAN_POINT ( 'NONE',  ( -0.9965810728732781287, 5.120417313871397980, -2.560208656935698990 ) ) ;
#116 = CARTESIAN_POINT ( 'NONE',  ( 0.9309566020158096533, 2.768666236686708042E-15, -22.60787550022064707 ) ) ;
#117 = CARTESIAN_POINT ( 'NONE',  ( -0.9996606229677894584, 2.485438634528485572E-16, -2.029514661908188522 ) ) ;
#118 = CARTESIAN_POINT ( 'NONE',  ( -0.9735415701906983132, 5.084730633865526487E-16, -4.151997651409136125 ) ) ;
#119 = CARTESIAN_POINT ( 'NONE',  ( 1.506767343580682539, -6.238162666661880544E-15, 25.46923190835566686 ) ) ;
#120 =( BOUNDED_SURFACE ( )  B_SPLINE_SURFACE ( 3, 3, ( 
 ( #462, #514, #142, #377 ),
 ( #136, #44, #183, #468 ),
 ( #231, #224, #511, #91 ),
 ( #372, #416, #135, #370 ),
 ( #326, #318, #92, #410 ),
 ( #510, #277, #275, #461 ),
 ( #190, #371, #45, #611 ),
 ( #609, #181, #320, #281 ),
 ( #52, #324, #415, #559 ),
 ( #1, #374, #144, #185 ),
 ( #517, #226, #412, #95 ),
 ( #519, #610, #466, #465 ),
 ( #561, #50, #138, #322 ),
 ( #93, #187, #566, #96 ),
 ( #278, #47, #233, #420 ),
 ( #229, #6, #530, #58 ),
 ( #107, #485, #154, #426 ),
 ( #192, #332, #68, #438 ) ),
 .UNSPECIFIED., .F., .F., .T. ) 
 B_SPLINE_SURFACE_WITH_KNOTS ( ( 4, 1, 1, 1, 1, 1, 1, 1, 1, 1, 1, 1, 1, 1, 1, 4 ),
 ( 4, 4 ),
 ( 0.000000000000000000, 0.009900990099009967030, 0.01980198019801976406, 0.02970297029702960445, 0.05940594059405951421, 0.1287128712871289382, 0.3564356435643585841, 0.5049504950495072864, 0.6633663366336627343, 0.8217821782178216239, 0.9306930693069321858, 0.9504950495049514503, 0.9702970297029722690, 0.9801980198019794033, 0.9900990099009921996, 1.000000000000000000 ),
 ( 0.000000000000000000, 1.000000000000000000 ),
 .UNSPECIFIED. ) 
 GEOMETRIC_REPRESENTATION_ITEM ( )  RATIONAL_B_SPLINE_SURFACE ( (
 ( 1.000000000000000000, 0.3333333333333334259, 0.3333333333333334259, 1.000000000000000000),
 ( 1.000000000000000000, 0.3333333333333334259, 0.3333333333333334259, 1.000000000000000000),
 ( 1.000000000000000000, 0.3333333333333334259, 0.3333333333333334259, 1.000000000000000000),
 ( 1.000000000000000000, 0.3333333333333334259, 0.3333333333333334259, 1.000000000000000000),
 ( 1.000000000000000000, 0.3333333333333334259, 0.3333333333333334259, 1.000000000000000000),
 ( 1.000000000000000000, 0.3333333333333334259, 0.3333333333333334259, 1.000000000000000000),
 ( 1.000000000000000000, 0.3333333333333334259, 0.3333333333333334259, 1.000000000000000000),
 ( 1.000000000000000000, 0.3333333333333334259, 0.3333333333333334259, 1.000000000000000000),
 ( 1.000000000000000000, 0.3333333333333334259, 0.3333333333333334259, 1.000000000000000000),
 ( 1.000000000000000000, 0.3333333333333334259, 0.3333333333333334259, 1.000000000000000000),
 ( 1.000000000000000000, 0.3333333333333334259, 0.3333333333333334259, 1.000000000000000000),
 ( 1.000000000000000000, 0.3333333333333334259, 0.3333333333333334259, 1.000000000000000000),
 ( 1.000000000000000000, 0.3333333333333334259, 0.3333333333333334259, 1.000000000000000000),
 ( 1.000000000000000000, 0.3333333333333334259, 0.3333333333333334259, 1.000000000000000000),
 ( 1.000000000000000000, 0.3333333333333334259, 0.3333333333333334259, 1.000000000000000000),
 ( 1.000000000000000000, 0.3333333333333334259, 0.3333333333333334259, 1.000000000000000000),
 ( 1.000000000000000000, 0.3333333333333334259, 0.3333333333333334259, 1.000000000000000000),
 ( 1.000000000000000000, 0.3333333333333334259, 0.3333333333333334259, 1.000000000000000000) ) ) 
 REPRESENTATION_ITEM ( '' )  SURFACE ( )  );
#121 = CARTESIAN_POINT ( 'NONE',  ( -0.07540968798434957709, 1.998564002777249452E-15, -16.31951354601773474 ) ) ;
#122 = CARTESIAN_POINT ( 'NONE',  ( -0.9941139337715241275, 3.460277244736445315E-16, -2.825530795610314172 ) ) ;
#123 = CARTESIAN_POINT ( 'NONE',  ( 1.733126233666433258, -53.01580198388334964, -26.50790099194169258 ) ) ;
#124 = CARTESIAN_POINT ( 'NONE',  ( 1.342818427992043651, 0.000000000000000000, 24.69027935783221039 ) ) ;
#125 = CARTESIAN_POINT ( 'NONE',  ( 1.342818427992043651, 3.023687158562318504E-15, -24.69027935783221039 ) ) ;
#126 = CARTESIAN_POINT ( 'NONE',  ( -0.9999998931613689468, -2.999075495265863811, -1.499537747632932794 ) ) ;
#127 = CARTESIAN_POINT ( 'NONE',  ( -0.9312268414686823981, 7.033667298193452575E-16, -5.743425208877012800 ) ) ;
#128 = DIRECTION ( 'NONE',  ( 0.000000000000000000, 0.000000000000000000, 1.000000000000000000 ) ) ;
#129 = CARTESIAN_POINT ( 'NONE',  ( 1.506767343580682539, 0.000000000000000000, 25.46923190835566686 ) ) ;
#130 = CARTESIAN_POINT ( 'NONE',  ( 2.766450457274120200, 0.000000000000000000, 0.000000000000000000 ) ) ;
#131 = CARTESIAN_POINT ( 'NONE',  ( 1.189469652234747432, 2.228154230358705856E-15, -18.19426002591141867 ) ) ;
#132 = CARTESIAN_POINT ( 'NONE',  ( -0.9312268414686825091, 11.48685041775402382, -5.743425208877010135 ) ) ;
#133 = CARTESIAN_POINT ( 'NONE',  ( -0.9839687634046162534, 0.000000000000000000, 3.621433565697548929 ) ) ;
#134 = CARTESIAN_POINT ( 'NONE',  ( -0.07540968798434957709, 32.63902709203546237, 16.31951354601773474 ) ) ;
#135 = CARTESIAN_POINT ( 'NONE',  ( 0.0004630025517351124141, 3.999999414687225308, -1.999999707343612654 ) ) ;
#136 = CARTESIAN_POINT ( 'NONE',  ( -3.852104597792695682E-05, 0.000000000000000000, 1.583333357721349977 ) ) ;
#137 = CARTESIAN_POINT ( 'NONE',  ( 0.000000000000000000, 0.000000000000000000, 0.000000000000000000 ) ) ;
#138 = CARTESIAN_POINT ( 'NONE',  ( 2.498364286285163605, 50.64937714584790029, -25.32468857292395015 ) ) ;
#139 = DIRECTION ( 'NONE',  ( -1.000000000000000000, -0.000000000000000000, -0.000000000000000000 ) ) ;
#140 = EDGE_CURVE ( 'NONE', #235, #341, #589, .T. ) ;
#141 = AXIS2_PLACEMENT_3D ( 'NONE', #201, #15, #245 ) ;
#142 = CARTESIAN_POINT ( 'NONE',  ( 0.000000000000000000, 2.999999999999999112, -1.499999999999999556 ) ) ;
#143 = SHAPE_DEFINITION_REPRESENTATION ( #366, #499 ) ;
#144 = CARTESIAN_POINT ( 'NONE',  ( 1.189469652234747210, 36.38852005182283023, -18.19426002591141511 ) ) ;
#145 = ORIENTED_EDGE ( 'NONE', *, *, #414, .T. ) ;
#146 = LINE ( 'NONE', #55, #478 ) ;
#147 = CARTESIAN_POINT ( 'NONE',  ( 1.733126233666433480, 0.000000000000000000, 26.50790099194168548 ) ) ;
#148 = EDGE_LOOP ( 'NONE', ( #429, #376, #529, #156 ) ) ;
#149 = CARTESIAN_POINT ( 'NONE',  ( -0.9941139337715241275, 3.460277244736445315E-16, -2.825530795610314172 ) ) ;
#150 = ORIENTED_EDGE ( 'NONE', *, *, #464, .F. ) ;
#151 = CARTESIAN_POINT ( 'NONE',  ( 0.000000000000000000, 1.836970198721029934E-16, 1.500000000000000000 ) ) ;
#152 = CARTESIAN_POINT ( 'NONE',  ( -0.9735415701906983132, 5.084730633865526487E-16, -4.151997651409136125 ) ) ;
#153 = ORIENTED_EDGE ( 'NONE', *, *, #480, .F. ) ;
#154 = CARTESIAN_POINT ( 'NONE',  ( 2.748205244336714870, 52.92857295402036044, -26.46428647701018022 ) ) ;
#155 = EDGE_CURVE ( 'NONE', #247, #195, #186, .T. ) ;
#156 = ORIENTED_EDGE ( 'NONE', *, *, #140, .F. ) ;
#157 = FILL_AREA_STYLE_COLOUR ( '', #335 ) ;
#158 = CARTESIAN_POINT ( 'NONE',  ( 0.9309566020158096533, -45.21575100044128703, 22.60787550022063641 ) ) ;
#159 = CONICAL_SURFACE ( 'NONE', #216, 26.54559799080610105, 0.2207305088925261838 ) ;
#160 = CARTESIAN_POINT ( 'NONE',  ( 0.06454586886587750094, -12.16569160355786927, -6.082845801778937300 ) ) ;
#161 = CARTESIAN_POINT ( 'NONE',  ( 1.774614254566054816, -43.46012349335152436, -21.73006174667577284 ) ) ;
#162 = CARTESIAN_POINT ( 'NONE',  ( -0.9312268414686825091, 11.48685041775402382, 5.743425208877012800 ) ) ;
#163 = CARTESIAN_POINT ( 'NONE',  ( 0.7413477098525417253, -43.12694372533548659, -21.56347186266775395 ) ) ;
#164 = CARTESIAN_POINT ( 'NONE',  ( -0.9999998931613687247, 0.000000000000000000, -1.499537747632932350 ) ) ;
#165 = CARTESIAN_POINT ( 'NONE',  ( 1.189469652234747210, -36.38852005182283023, -18.19426002591142577 ) ) ;
#166 = CARTESIAN_POINT ( 'NONE',  ( -0.9965810728732782398, 3.135351336865648362E-16, -2.560208656935699434 ) ) ;
#167 = CARTESIAN_POINT ( 'NONE',  ( 1.506767343580682539, 0.000000000000000000, 25.46923190835566686 ) ) ;
#168 = CARTESIAN_POINT ( 'NONE',  ( 2.240068411940153492, -48.20332606320560132, -24.10166303160281487 ) ) ;
#169 = CARTESIAN_POINT ( 'NONE',  ( -0.9999998931613689468, 0.000000000000000000, 1.499537747632932350 ) ) ;
#170 = CARTESIAN_POINT ( 'NONE',  ( 1.790712687000136860, 0.000000000000000000, 26.76454045736011622 ) ) ;
#171 = CIRCLE ( 'NONE', #418, 26.76454045736011622 ) ;
#172 = CARTESIAN_POINT ( 'NONE',  ( -0.0001155631379337802064, -3.500000146328097639, -1.750000073164049708 ) ) ;
#173 = CARTESIAN_POINT ( 'NONE',  ( -0.9999998931613689468, 1.836404102839302311E-16, -1.499537747632932350 ) ) ;
#174 = CARTESIAN_POINT ( 'NONE',  ( -0.7153956443832218959, 1.222603055822780178E-15, -9.983311569294951227 ) ) ;
#175 = FACE_OUTER_BOUND ( 'NONE', #98, .T. ) ;
#176 = CARTESIAN_POINT ( 'NONE',  ( 0.2162776907041540908, 36.84590285260173204, 18.42295142630086957 ) ) ;
#177 = CARTESIAN_POINT ( 'NONE',  ( 0.0004630025517351123599, -4.898586479787998002E-16, 1.999999707343613098 ) ) ;
#178 = CARTESIAN_POINT ( 'NONE',  ( 2.748205244336714870, -6.481880745157822066E-15, 26.46428647701018733 ) ) ;
#179 = CARTESIAN_POINT ( 'NONE',  ( -0.8883038768872704161, 13.60798697020024939, -6.803993485100124694 ) ) ;
#180 = CARTESIAN_POINT ( 'NONE',  ( 1.675246347709663741, 3.214363262568021343E-15, -26.24726790455816428 ) ) ;
#181 = CARTESIAN_POINT ( 'NONE',  ( 0.2620152912651191879, 19.65769030968556308, 9.828845154842783316 ) ) ;
#182 = APPLICATION_CONTEXT ( 'automotive_design' ) ;
#183 = CARTESIAN_POINT ( 'NONE',  ( -3.852104597792695682E-05, 3.166666715442699953, -1.583333357721349977 ) ) ;
#184 = CARTESIAN_POINT ( 'NONE',  ( -0.9996606229677894584, -4.059029323816376156, -2.029514661908188966 ) ) ;
#185 = CARTESIAN_POINT ( 'NONE',  ( 1.189469652234747432, 2.228154230358705856E-15, -18.19426002591141867 ) ) ;
#186 = CIRCLE ( 'NONE', #564, 26.54559799080610105 ) ;
#187 = CARTESIAN_POINT ( 'NONE',  ( 2.586256266561930417, 51.46396184206002289, 25.73198092103001500 ) ) ;
#188 = APPLICATION_PROTOCOL_DEFINITION ( 'draft international standard', 'automotive_design', 1998, #334 ) ;
#189 = FACE_OUTER_BOUND ( 'NONE', #384, .T. ) ;
#190 = CARTESIAN_POINT ( 'NONE',  ( 0.06454586886587748706, 0.000000000000000000, 6.082845801778935524 ) ) ;
#191 = CARTESIAN_POINT ( 'NONE',  ( -0.9839687634046162534, 4.434977024556289681E-16, -3.621433565697548929 ) ) ;
#192 = CARTESIAN_POINT ( 'NONE',  ( 2.766450457274120200, 0.000000000000000000, 26.54559799080610105 ) ) ;
#193 = CARTESIAN_POINT ( 'NONE',  ( 0.9309566020158096533, -5.537332473373416085E-15, 22.60787550022064707 ) ) ;
#194 = CARTESIAN_POINT ( 'NONE',  ( 1.790712687000136860, 53.52908091472021113, 26.76454045736010912 ) ) ;
#195 = VERTEX_POINT ( 'NONE', #549 ) ;
#196 = CARTESIAN_POINT ( 'NONE',  ( -0.9735415701906983132, -8.303995302818268698, -4.151997651409137013 ) ) ;
#197 = ORIENTED_EDGE ( 'NONE', *, *, #78, .T. ) ;
#198 = DIRECTION ( 'NONE',  ( -0.9757377702739832293, 0.000000000000000000, 0.2189424665540138926 ) ) ;
#199 = ADVANCED_FACE ( 'NONE', ( #393 ), #562, .F. ) ;
#200 = ORIENTED_EDGE ( 'NONE', *, *, #357, .F. ) ;
#201 = CARTESIAN_POINT ( 'NONE',  ( -0.9999998931613687247, 0.000000000000000000, 0.000000000000000000 ) ) ;
#202 = CARTESIAN_POINT ( 'NONE',  ( 0.9309566020158096533, -45.21575100044127993, -22.60787550022065062 ) ) ;
#203 = CARTESIAN_POINT ( 'NONE',  ( 0.002274735637413429715, -4.833325386083063613, 2.416662693041530474 ) ) ;
#204 = CARTESIAN_POINT ( 'NONE',  ( 1.189469652234747432, 0.000000000000000000, 18.19426002591141867 ) ) ;
#205 = DIRECTION ( 'NONE',  ( 0.000000000000000000, 0.000000000000000000, 1.000000000000000000 ) ) ;
#206 = CARTESIAN_POINT ( 'NONE',  ( -0.9999998931613689468, -2.999075495265864255, 1.499537747632931906 ) ) ;
#207 = DIRECTION ( 'NONE',  ( 0.000000000000000000, 0.000000000000000000, -1.000000000000000000 ) ) ;
#208 = CARTESIAN_POINT ( 'NONE',  ( -0.07540968798434957709, 0.000000000000000000, 16.31951354601773474 ) ) ;
#209 = CARTESIAN_POINT ( 'NONE',  ( 0.6867326130578439436, -28.61875375264628474, 14.30937687632313704 ) ) ;
#210 = CARTESIAN_POINT ( 'NONE',  ( -0.9996606229677894584, 2.485438634528485572E-16, -2.029514661908188522 ) ) ;
#211 = CARTESIAN_POINT ( 'NONE',  ( 1.342818427992043651, 3.023687158562318504E-15, -24.69027935783221039 ) ) ;
#212 = CARTESIAN_POINT ( 'NONE',  ( 0.01032457761036133063, 4.082114332778806707E-16, -3.333299311786005692 ) ) ;
#213 = CARTESIAN_POINT ( 'NONE',  ( 2.240068411940153492, -48.20332606320560842, 24.10166303160280066 ) ) ;
#214 = CARTESIAN_POINT ( 'NONE',  ( -0.8883038768872704161, 13.60798697020024939, 6.803993485100125582 ) ) ;
#215 = DIRECTION ( 'NONE',  ( -1.000000000000000000, -0.000000000000000000, -0.000000000000000000 ) ) ;
#216 = AXIS2_PLACEMENT_3D ( 'NONE', #569, #572, #329 ) ;
#217 = CARTESIAN_POINT ( 'NONE',  ( -0.0001155631379337802064, -3.500000146328098083, 1.750000073164048375 ) ) ;
#218 = CARTESIAN_POINT ( 'NONE',  ( 2.711714818461893994, 3.221024795558105632E-15, -26.30166344941830303 ) ) ;
#219 = CARTESIAN_POINT ( 'NONE',  ( -0.9839687634046161424, 7.242867131395096081, 3.621433565697549373 ) ) ;
#220 = CARTESIAN_POINT ( 'NONE',  ( 1.675246347709663963, -52.49453580911631434, -26.24726790455816783 ) ) ;
#221 = CARTESIAN_POINT ( 'NONE',  ( 1.506767343580682539, 50.93846381671132661, 25.46923190835567041 ) ) ;
#222 = CARTESIAN_POINT ( 'NONE',  ( 1.237132475159802070, -48.34041942435010952, 24.17020971217504410 ) ) ;
#223 = CARTESIAN_POINT ( 'NONE',  ( 0.9309566020158096533, 45.21575100044127993, -22.60787550022063641 ) ) ;
#224 = CARTESIAN_POINT ( 'NONE',  ( -0.0001155631379337802064, 3.500000146328097639, 1.750000073164049486 ) ) ;
#225 = B_SPLINE_CURVE_WITH_KNOTS ( 'NONE', 3,
 ( #367, #259, #256, #369, #557, #133, #558, #89, #300, #317, #31, #208, #508, #272, #443, #392, #591, #167, #397, #353, #595, #170 ),
 .UNSPECIFIED., .F., .F.,
 ( 4, 2, 2, 2, 2, 2, 2, 2, 2, 2, 4 ),
 ( 0.000000000000000000, 0.03125000000000001388, 0.06250000000000002776, 0.1250000000000000555, 0.2500000000000001110, 0.5000000000000002220, 0.7500000000000005551, 0.8750000000000005551, 0.9375000000000005551, 0.9687500000000003331, 1.000000000000000000 ),
 .UNSPECIFIED. ) ;
#226 = CARTESIAN_POINT ( 'NONE',  ( 1.774614254566054816, 43.46012349335152436, 21.73006174667576929 ) ) ;
#227 =( GEOMETRIC_REPRESENTATION_CONTEXT ( 3 ) GLOBAL_UNCERTAINTY_ASSIGNED_CONTEXT ( ( #5 ) ) GLOBAL_UNIT_ASSIGNED_CONTEXT ( ( #521, #582, #287 ) ) REPRESENTATION_CONTEXT ( 'NONE', 'WORKASPACE' ) );
#228 = PRODUCT_CONTEXT ( 'NONE', #334, 'mechanical' ) ;
#229 = CARTESIAN_POINT ( 'NONE',  ( 2.711714818461893994, 0.000000000000000000, 26.30166344941830303 ) ) ;
#230 = CARTESIAN_POINT ( 'NONE',  ( 1.790712687000136860, 0.000000000000000000, 26.76454045736011622 ) ) ;
#231 = CARTESIAN_POINT ( 'NONE',  ( -0.0001155631379337802064, 0.000000000000000000, 1.750000073164049263 ) ) ;
#232 = ORIENTED_EDGE ( 'NONE', *, *, #155, .F. ) ;
#233 = CARTESIAN_POINT ( 'NONE',  ( 2.657661304729749485, 52.11515327591443736, -26.05757663795721868 ) ) ;
#234 =( NAMED_UNIT ( * ) SI_UNIT ( $, .STERADIAN. ) SOLID_ANGLE_UNIT ( ) );
#235 = VERTEX_POINT ( 'NONE', #257 ) ;
#236 = CIRCLE ( 'NONE', #40, 26.54559799080610105 ) ;
#237 = SURFACE_SIDE_STYLE ('',( #534 ) ) ;
#238 = CARTESIAN_POINT ( 'NONE',  ( 0.7413477098525417253, -43.12694372533549370, 21.56347186266773619 ) ) ;
#239 = EDGE_LOOP ( 'NONE', ( #575, #290, #525, #473 ) ) ;
#240 =( BOUNDED_SURFACE ( )  B_SPLINE_SURFACE ( 3, 3, ( 
 ( #169, #267, #308, #493 ),
 ( #75, #442, #262, #590 ),
 ( #605, #88, #498, #210 ),
 ( #354, #507, #115, #166 ),
 ( #545, #316, #446, #122 ),
 ( #388, #219, #450, #588 ),
 ( #38, #360, #34, #118 ),
 ( #456, #162, #132, #127 ),
 ( #365, #214, #179, #489 ),
 ( #71, #556, #401, #174 ),
 ( #347, #299, #551, #255 ),
 ( #352, #134, #276, #548 ),
 ( #398, #176, #553, #310 ),
 ( #358, #314, #453, #362 ),
 ( #560, #501, #223, #602 ),
 ( #304, #495, #32, #368 ),
 ( #124, #264, #509, #270 ),
 ( #129, #221, #608, #273 ),
 ( #408, #42, #463, #472 ),
 ( #467, #48, #417, #97 ),
 ( #147, #282, #57, #327 ),
 ( #230, #194, #571, #280 ) ),
 .UNSPECIFIED., .F., .F., .F. ) 
 B_SPLINE_SURFACE_WITH_KNOTS ( ( 4, 2, 2, 2, 2, 2, 2, 2, 2, 2, 4 ),
 ( 4, 4 ),
 ( 0.000000000000000000, 0.03125000000000001388, 0.06250000000000002776, 0.1250000000000000555, 0.2500000000000001110, 0.5000000000000002220, 0.7500000000000005551, 0.8750000000000005551, 0.9375000000000005551, 0.9687500000000003331, 1.000000000000000000 ),
 ( 0.000000000000000000, 1.000000000000000000 ),
 .UNSPECIFIED. ) 
 GEOMETRIC_REPRESENTATION_ITEM ( )  RATIONAL_B_SPLINE_SURFACE ( (
 ( 1.000000000000000000, 0.3333333333333334259, 0.3333333333333334259, 1.000000000000000000),
 ( 1.000000000000000000, 0.3333333333333334259, 0.3333333333333334259, 1.000000000000000000),
 ( 1.000000000000000000, 0.3333333333333334259, 0.3333333333333334259, 1.000000000000000000),
 ( 1.000000000000000000, 0.3333333333333334259, 0.3333333333333334259, 1.000000000000000000),
 ( 1.000000000000000000, 0.3333333333333334259, 0.3333333333333334259, 1.000000000000000000),
 ( 1.000000000000000000, 0.3333333333333334259, 0.3333333333333334259, 1.000000000000000000),
 ( 1.000000000000000000, 0.3333333333333334259, 0.3333333333333334259, 1.000000000000000000),
 ( 1.000000000000000000, 0.3333333333333334259, 0.3333333333333334259, 1.000000000000000000),
 ( 1.000000000000000000, 0.3333333333333334259, 0.3333333333333334259, 1.000000000000000000),
 ( 1.000000000000000000, 0.3333333333333334259, 0.3333333333333334259, 1.000000000000000000),
 ( 1.000000000000000000, 0.3333333333333334259, 0.3333333333333334259, 1.000000000000000000),
 ( 1.000000000000000000, 0.3333333333333334259, 0.3333333333333334259, 1.000000000000000000),
 ( 1.000000000000000000, 0.3333333333333334259, 0.3333333333333334259, 1.000000000000000000),
 ( 1.000000000000000000, 0.3333333333333334259, 0.3333333333333334259, 1.000000000000000000),
 ( 1.000000000000000000, 0.3333333333333334259, 0.3333333333333334259, 1.000000000000000000),
 ( 1.000000000000000000, 0.3333333333333334259, 0.3333333333333334259, 1.000000000000000000),
 ( 1.000000000000000000, 0.3333333333333334259, 0.3333333333333334259, 1.000000000000000000),
 ( 1.000000000000000000, 0.3333333333333334259, 0.3333333333333334259, 1.000000000000000000),
 ( 1.000000000000000000, 0.3333333333333334259, 0.3333333333333334259, 1.000000000000000000),
 ( 1.000000000000000000, 0.3333333333333334259, 0.3333333333333334259, 1.000000000000000000),
 ( 1.000000000000000000, 0.3333333333333334259, 0.3333333333333334259, 1.000000000000000000),
 ( 1.000000000000000000, 0.3333333333333334259, 0.3333333333333334259, 1.000000000000000000) ) ) 
 REPRESENTATION_ITEM ( '' )  SURFACE ( )  );
#241 = CARTESIAN_POINT ( 'NONE',  ( -0.9965810728732781287, -5.120417313871399756, 2.560208656935698546 ) ) ;
#242 = ORIENTED_EDGE ( 'NONE', *, *, #396, .F. ) ;
#243 = ADVANCED_FACE ( 'NONE', ( #488 ), #542, .T. ) ;
#244 = CIRCLE ( 'NONE', #141, 1.499537747632932350 ) ;
#245 = DIRECTION ( 'NONE',  ( 0.000000000000000000, 0.000000000000000000, 1.000000000000000000 ) ) ;
#246 = CARTESIAN_POINT ( 'NONE',  ( -0.9839687634046161424, -7.242867131395096969, 3.621433565697547152 ) ) ;
#247 = VERTEX_POINT ( 'NONE', #500 ) ;
#248 = CARTESIAN_POINT ( 'NONE',  ( 2.498364286285164049, 0.000000000000000000, 25.32468857292395725 ) ) ;
#249 = CARTESIAN_POINT ( 'NONE',  ( -0.07540968798434957709, 1.998564002777249452E-15, -16.31951354601773474 ) ) ;
#250 = DIRECTION ( 'NONE',  ( -1.000000000000000000, -0.000000000000000000, -0.000000000000000000 ) ) ;
#251 = CARTESIAN_POINT ( 'NONE',  ( 0.2620152912651192434, -2.407372751638637064E-15, 9.828845154842783316 ) ) ;
#252 = CARTESIAN_POINT ( 'NONE',  ( -0.0001155631379337802064, 0.000000000000000000, 1.750000073164049263 ) ) ;
#253 = CARTESIAN_POINT ( 'NONE',  ( 1.675246347709663741, 3.214363262568021343E-15, -26.24726790455816428 ) ) ;
#254 = CARTESIAN_POINT ( 'NONE',  ( -0.9999998931613689468, -3.672808205678604622E-16, 1.499537747632932350 ) ) ;
#255 = CARTESIAN_POINT ( 'NONE',  ( -0.5412466886489493145, 1.481784420125533983E-15, -12.09968801745294975 ) ) ;
#256 = CARTESIAN_POINT ( 'NONE',  ( -0.9996606229677894584, 0.000000000000000000, 2.029514661908188522 ) ) ;
#257 = CARTESIAN_POINT ( 'NONE',  ( -0.9999998931613687247, 0.000000000000000000, -1.499537747632932350 ) ) ;
#258 = CARTESIAN_POINT ( 'NONE',  ( -0.9999998931613687247, 0.000000000000000000, 0.000000000000000000 ) ) ;
#259 = CARTESIAN_POINT ( 'NONE',  ( -1.000121475212736755, 0.000000000000000000, 1.762558657940941798 ) ) ;
#260 = CARTESIAN_POINT ( 'NONE',  ( -3.852104597792695682E-05, -3.878048257033364807E-16, 1.583333357721349977 ) ) ;
#261 = CARTESIAN_POINT ( 'NONE',  ( 2.766450457274120200, -53.09119598161220210, 26.54559799080609039 ) ) ;
#262 = CARTESIAN_POINT ( 'NONE',  ( -1.000121475212736977, 3.525117315881882707, -1.762558657940941353 ) ) ;
#263 = CARTESIAN_POINT ( 'NONE',  ( 1.733126233666433480, 3.246281610189633556E-15, -26.50790099194168548 ) ) ;
#264 = CARTESIAN_POINT ( 'NONE',  ( 1.342818427992043651, 49.38055871566439947, 24.69027935783221039 ) ) ;
#265 = CARTESIAN_POINT ( 'NONE',  ( 0.002274735637413429715, 2.959558231652134603E-16, -2.416662693041531806 ) ) ;
#266 = EDGE_CURVE ( 'NONE', #283, #4, #225, .T. ) ;
#267 = CARTESIAN_POINT ( 'NONE',  ( -0.9999998931613689468, 2.999075495265863811, 1.499537747632932572 ) ) ;
#268 = EDGE_CURVE ( 'NONE', #283, #235, #343, .T. ) ;
#269 = CARTESIAN_POINT ( 'NONE',  ( 1.237132475159802070, -48.34041942435009531, -24.17020971217506542 ) ) ;
#270 = CARTESIAN_POINT ( 'NONE',  ( 1.342818427992043651, 3.023687158562318504E-15, -24.69027935783221039 ) ) ;
#271 = CARTESIAN_POINT ( 'NONE',  ( 2.240068411940153936, 2.951602448578047089E-15, -24.10166303160280776 ) ) ;
#272 = CARTESIAN_POINT ( 'NONE',  ( 0.7413477098525417253, 0.000000000000000000, 21.56347186266774685 ) ) ;
#273 = CARTESIAN_POINT ( 'NONE',  ( 1.506767343580682539, 3.119081333330940272E-15, -25.46923190835566686 ) ) ;
#274 = CONICAL_SURFACE ( 'NONE', #567, 1.499537747632932350, 0.0004622523835298208224 ) ;
#275 = CARTESIAN_POINT ( 'NONE',  ( 0.01032457761036133063, 6.666598623572008719, -3.333299311786004360 ) ) ;
#276 = CARTESIAN_POINT ( 'NONE',  ( -0.07540968798434957709, 32.63902709203546237, -16.31951354601773119 ) ) ;
#277 = CARTESIAN_POINT ( 'NONE',  ( 0.01032457761036133063, 6.666598623572008719, 3.333299311786005692 ) ) ;
#278 = CARTESIAN_POINT ( 'NONE',  ( 2.657661304729749041, 0.000000000000000000, 26.05757663795722578 ) ) ;
#279 = FACE_OUTER_BOUND ( 'NONE', #479, .T. ) ;
#280 = CARTESIAN_POINT ( 'NONE',  ( 1.790712687000136860, 3.277710880175590188E-15, -26.76454045736011622 ) ) ;
#281 = CARTESIAN_POINT ( 'NONE',  ( 0.2620152912651192434, 1.203686375819318532E-15, -9.828845154842783316 ) ) ;
#282 = CARTESIAN_POINT ( 'NONE',  ( 1.733126233666433258, 53.01580198388334964, 26.50790099194168192 ) ) ;
#283 = VERTEX_POINT ( 'NONE', #451 ) ;
#284 = CARTESIAN_POINT ( 'NONE',  ( 1.189469652234747432, 2.228154230358705856E-15, -18.19426002591141867 ) ) ;
#285 = CARTESIAN_POINT ( 'NONE',  ( -0.9999998931613687247, 0.000000000000000000, 0.000000000000000000 ) ) ;
#286 = ORIENTED_EDGE ( 'NONE', *, *, #357, .T. ) ;
#287 =( NAMED_UNIT ( * ) SI_UNIT ( $, .STERADIAN. ) SOLID_ANGLE_UNIT ( ) );
#288 = EDGE_CURVE ( 'NONE', #103, #4, #171, .T. ) ;
#289 = ADVANCED_FACE ( 'NONE', ( #175 ), #598, .T. ) ;
#290 = ORIENTED_EDGE ( 'NONE', *, *, #268, .F. ) ;
#291 = CARTESIAN_POINT ( 'NONE',  ( 0.002274735637413429715, 2.959558231652134603E-16, -2.416662693041531806 ) ) ;
#292 = CARTESIAN_POINT ( 'NONE',  ( 0.2162776907041540908, -36.84590285260173914, 18.42295142630085891 ) ) ;
#293 = ORIENTED_EDGE ( 'NONE', *, *, #266, .F. ) ;
#294 = CARTESIAN_POINT ( 'NONE',  ( -3.852104597792695682E-05, 0.000000000000000000, 1.583333357721349977 ) ) ;
#295 = CARTESIAN_POINT ( 'NONE',  ( -0.9941139337715241275, -5.651061591220627456, -2.825530795610315060 ) ) ;
#296 = ORIENTED_EDGE ( 'NONE', *, *, #414, .F. ) ;
#297 = CARTESIAN_POINT ( 'NONE',  ( 0.0004630025517351124141, -3.999999414687225308, -1.999999707343613542 ) ) ;
#298 = CARTESIAN_POINT ( 'NONE',  ( 2.748205244336714870, 3.240940372578911033E-15, -26.46428647701018733 ) ) ;
#299 = CARTESIAN_POINT ( 'NONE',  ( -0.5412466886489493145, 24.19937603490589240, 12.09968801745294975 ) ) ;
#300 = CARTESIAN_POINT ( 'NONE',  ( -0.8883038768872704161, 0.000000000000000000, 6.803993485100126470 ) ) ;
#301 = CARTESIAN_POINT ( 'NONE',  ( 1.189469652234747432, -4.456308460717411712E-15, 18.19426002591141867 ) ) ;
#302 = DIRECTION ( 'NONE',  ( 1.000000000000000000, 0.000000000000000000, 0.000000000000000000 ) ) ;
#303 = CARTESIAN_POINT ( 'NONE',  ( 1.675246347709663963, -52.49453580911631434, 26.24726790455814651 ) ) ;
#304 = CARTESIAN_POINT ( 'NONE',  ( 1.237132475159802070, 0.000000000000000000, 24.17020971217505476 ) ) ;
#305 = CARTESIAN_POINT ( 'NONE',  ( 1.562314575179147624, 3.150855123123999011E-15, -25.72868459148994802 ) ) ;
#306 = CARTESIAN_POINT ( 'NONE',  ( 1.774614254566054816, -5.322330112668164859E-15, 21.73006174667576929 ) ) ;
#307 = STYLED_ITEM ( 'NONE', ( #430 ), #431 ) ;
#308 = CARTESIAN_POINT ( 'NONE',  ( -0.9999998931613689468, 2.999075495265863811, -1.499537747632931906 ) ) ;
#309 = CARTESIAN_POINT ( 'NONE',  ( 1.733126233666433258, -53.01580198388336385, 26.50790099194167126 ) ) ;
#310 = CARTESIAN_POINT ( 'NONE',  ( 0.2162776907041540908, 2.256160849506652511E-15, -18.42295142630086957 ) ) ;
#311 = LINE ( 'NONE', #440, #109 ) ;
#312 = CARTESIAN_POINT ( 'NONE',  ( 2.586256266561930417, 3.151258807066017315E-15, -25.73198092103001855 ) ) ;
#313 = CARTESIAN_POINT ( 'NONE',  ( 0.000000000000000000, 0.000000000000000000, -1.500000000000000000 ) ) ;
#314 = CARTESIAN_POINT ( 'NONE',  ( 0.7413477098525417253, 43.12694372533548659, 21.56347186266774685 ) ) ;
#315 = CARTESIAN_POINT ( 'NONE',  ( 2.586256266561930417, -51.46396184206002289, 25.73198092103000434 ) ) ;
#316 = CARTESIAN_POINT ( 'NONE',  ( -0.9941139337715241275, 5.651061591220627456, 2.825530795610314172 ) ) ;
#317 = CARTESIAN_POINT ( 'NONE',  ( -0.7153956443832218959, 0.000000000000000000, 9.983311569294951227 ) ) ;
#318 = CARTESIAN_POINT ( 'NONE',  ( 0.002274735637413429715, 4.833325386083062725, 2.416662693041531806 ) ) ;
#319 =( GEOMETRIC_REPRESENTATION_CONTEXT ( 3 ) GLOBAL_UNCERTAINTY_ASSIGNED_CONTEXT ( ( #581 ) ) GLOBAL_UNIT_ASSIGNED_CONTEXT ( ( #51, #469, #234 ) ) REPRESENTATION_CONTEXT ( 'NONE', 'WORKASPACE' ) );
#320 = CARTESIAN_POINT ( 'NONE',  ( 0.2620152912651191879, 19.65769030968556308, -9.828845154842781540 ) ) ;
#321 = FACE_OUTER_BOUND ( 'NONE', #148, .T. ) ;
#322 = CARTESIAN_POINT ( 'NONE',  ( 2.498364286285164049, 3.101379880023487486E-15, -25.32468857292395725 ) ) ;
#323 = AXIS2_PLACEMENT_3D ( 'NONE', #361, #552, #128 ) ;
#324 = CARTESIAN_POINT ( 'NONE',  ( 0.6867326130578439436, 28.61875375264628119, 14.30937687632314592 ) ) ;
#325 = AXIS2_PLACEMENT_3D ( 'NONE', #285, #46, #512 ) ;
#326 = CARTESIAN_POINT ( 'NONE',  ( 0.002274735637413429715, 0.000000000000000000, 2.416662693041531806 ) ) ;
#327 = CARTESIAN_POINT ( 'NONE',  ( 1.733126233666433480, 3.246281610189633556E-15, -26.50790099194168548 ) ) ;
#328 = PRODUCT_DEFINITION ( 'ๆ', '', #348, #339 ) ;
#329 = DIRECTION ( 'NONE',  ( 0.000000000000000000, 0.000000000000000000, 1.000000000000000000 ) ) ;
#330 = CARTESIAN_POINT ( 'NONE',  ( 2.657661304729749041, 0.000000000000000000, 26.05757663795722578 ) ) ;
#331 = CARTESIAN_POINT ( 'NONE',  ( -0.9996606229677894584, 2.485438634528485572E-16, -2.029514661908188522 ) ) ;
#332 = CARTESIAN_POINT ( 'NONE',  ( 2.766450457274120200, 53.09119598161218789, 26.54559799080610105 ) ) ;
#333 = CARTESIAN_POINT ( 'NONE',  ( 1.237132475159802070, 2.959996995873544853E-15, -24.17020971217505476 ) ) ;
#334 = APPLICATION_CONTEXT ( 'automotive_design' ) ;
#335 = COLOUR_RGB ( '',0.7921568627450980005, 0.8196078431372548767, 0.9333333333333333481 ) ;
#336 = EDGE_LOOP ( 'NONE', ( #242, #338, #60, #293 ) ) ;
#337 = CARTESIAN_POINT ( 'NONE',  ( -0.9312268414686825091, -11.48685041775402560, 5.743425208877010135 ) ) ;
#338 = ORIENTED_EDGE ( 'NONE', *, *, #49, .T. ) ;
#339 = PRODUCT_DEFINITION_CONTEXT ( 'detailed design', #182, 'design' ) ;
#340 = CARTESIAN_POINT ( 'NONE',  ( 0.0004630025517351123599, 0.000000000000000000, 1.999999707343613098 ) ) ;
#341 = VERTEX_POINT ( 'NONE', #313 ) ;
#342 = CARTESIAN_POINT ( 'NONE',  ( 0.06454586886587748706, -1.489867528171097719E-15, 6.082845801778935524 ) ) ;
#343 = CIRCLE ( 'NONE', #402, 1.499537747632932350 ) ;
#344 = CARTESIAN_POINT ( 'NONE',  ( -0.9965810728732782398, -6.270702673731296725E-16, 2.560208656935699434 ) ) ;
#345 = CARTESIAN_POINT ( 'NONE',  ( 0.000000000000000000, 1.836970198721029934E-16, -1.500000000000000000 ) ) ;
#346 = CARTESIAN_POINT ( 'NONE',  ( 2.498364286285163605, -50.64937714584790029, -25.32468857292396791 ) ) ;
#347 = CARTESIAN_POINT ( 'NONE',  ( -0.5412466886489493145, 0.000000000000000000, 12.09968801745294975 ) ) ;
#348 = PRODUCT_DEFINITION_FORMATION_WITH_SPECIFIED_SOURCE ( 'ไป', '', #546, .NOT_KNOWN. ) ;
#349 = CARTESIAN_POINT ( 'NONE',  ( -0.7153956443832218959, -19.96662313858989890, -9.983311569294953003 ) ) ;
#350 = CARTESIAN_POINT ( 'NONE',  ( -0.0001155631379337802064, -4.286263976215973698E-16, 1.750000073164049263 ) ) ;
#351 = CARTESIAN_POINT ( 'NONE',  ( -1.000121475212736977, -3.525117315881883595, 1.762558657940941131 ) ) ;
#352 = CARTESIAN_POINT ( 'NONE',  ( -0.07540968798434957709, 0.000000000000000000, 16.31951354601773474 ) ) ;
#353 = CARTESIAN_POINT ( 'NONE',  ( 1.675246347709663741, 0.000000000000000000, 26.24726790455816428 ) ) ;
#354 = CARTESIAN_POINT ( 'NONE',  ( -0.9965810728732782398, 0.000000000000000000, 2.560208656935699434 ) ) ;
#355 = ADVANCED_FACE ( 'NONE', ( #279 ), #120, .F. ) ;
#356 = DIRECTION ( 'NONE',  ( -1.000000000000000000, -0.000000000000000000, -0.000000000000000000 ) ) ;
#357 = EDGE_CURVE ( 'NONE', #378, #195, #565, .T. ) ;
#358 = CARTESIAN_POINT ( 'NONE',  ( 0.7413477098525417253, 0.000000000000000000, 21.56347186266774685 ) ) ;
#359 = CARTESIAN_POINT ( 'NONE',  ( 1.237132475159802070, 2.959996995873544853E-15, -24.17020971217505476 ) ) ;
#360 = CARTESIAN_POINT ( 'NONE',  ( -0.9735415701906983132, 8.303995302818268698, 4.151997651409136125 ) ) ;
#361 = CARTESIAN_POINT ( 'NONE',  ( 2.766450457274120200, 0.000000000000000000, 0.000000000000000000 ) ) ;
#362 = CARTESIAN_POINT ( 'NONE',  ( 0.7413477098525417253, 2.640763679512006767E-15, -21.56347186266774685 ) ) ;
#363 = CARTESIAN_POINT ( 'NONE',  ( 0.002274735637413429715, -4.833325386083062725, -2.416662693041532251 ) ) ;
#364 = CARTESIAN_POINT ( 'NONE',  ( 2.766450457274120200, -53.09119598161218789, -26.54559799080611171 ) ) ;
#365 = CARTESIAN_POINT ( 'NONE',  ( -0.8883038768872704161, 0.000000000000000000, 6.803993485100126470 ) ) ;
#366 = PRODUCT_DEFINITION_SHAPE ( 'NONE', 'NONE',  #328 ) ;
#367 = CARTESIAN_POINT ( 'NONE',  ( -0.9999998931613687247, 1.836687150780166123E-16, 1.499537747632932350 ) ) ;
#368 = CARTESIAN_POINT ( 'NONE',  ( 1.237132475159802070, 2.959996995873544853E-15, -24.17020971217505476 ) ) ;
#369 = CARTESIAN_POINT ( 'NONE',  ( -0.9965810728732782398, 0.000000000000000000, 2.560208656935699434 ) ) ;
#370 = CARTESIAN_POINT ( 'NONE',  ( 0.0004630025517351123599, 2.449293239893999001E-16, -1.999999707343613098 ) ) ;
#371 = CARTESIAN_POINT ( 'NONE',  ( 0.06454586886587750094, 12.16569160355786927, 6.082845801778936412 ) ) ;
#372 = CARTESIAN_POINT ( 'NONE',  ( 0.0004630025517351123599, 0.000000000000000000, 1.999999707343613098 ) ) ;
#373 = DIRECTION ( 'NONE',  ( 0.000000000000000000, 0.000000000000000000, 1.000000000000000000 ) ) ;
#374 = CARTESIAN_POINT ( 'NONE',  ( 1.189469652234747210, 36.38852005182283023, 18.19426002591141867 ) ) ;
#375 = CONICAL_SURFACE ( 'NONE', #325, 1.499537747632932350, 0.0004622523835298208224 ) ;
#376 = ORIENTED_EDGE ( 'NONE', *, *, #94, .T. ) ;
#377 = CARTESIAN_POINT ( 'NONE',  ( 0.000000000000000000, 1.836970198721029934E-16, -1.500000000000000000 ) ) ;
#378 = VERTEX_POINT ( 'NONE', #151 ) ;
#379 = CARTESIAN_POINT ( 'NONE',  ( 0.06454586886587748706, 0.000000000000000000, 6.082845801778935524 ) ) ;
#380 = ORIENTED_EDGE ( 'NONE', *, *, #563, .F. ) ;
#381 = AXIS2_PLACEMENT_3D ( 'NONE', #504, #84, #27 ) ;
#382 = ORIENTED_EDGE ( 'NONE', *, *, #452, .T. ) ;
#383 = CARTESIAN_POINT ( 'NONE',  ( -0.07540968798434957709, -32.63902709203546237, -16.31951354601773829 ) ) ;
#384 = EDGE_LOOP ( 'NONE', ( #580, #63, #380, #296 ) ) ;
#385 = CARTESIAN_POINT ( 'NONE',  ( 0.2620152912651192434, 1.203686375819318532E-15, -9.828845154842783316 ) ) ;
#386 = CARTESIAN_POINT ( 'NONE',  ( -0.7153956443832218959, -2.445206111645560356E-15, 9.983311569294951227 ) ) ;
#387 = CARTESIAN_POINT ( 'NONE',  ( 0.01032457761036133063, -8.164228665557613413E-16, 3.333299311786005692 ) ) ;
#388 = CARTESIAN_POINT ( 'NONE',  ( -0.9839687634046162534, 0.000000000000000000, 3.621433565697548929 ) ) ;
#389 = CARTESIAN_POINT ( 'NONE',  ( 1.790712687000136860, 3.277710880175590188E-15, -26.76454045736011622 ) ) ;
#390 = CARTESIAN_POINT ( 'NONE',  ( -1.000121475212736977, -3.525117315881882707, -1.762558657940942020 ) ) ;
#391 = CARTESIAN_POINT ( 'NONE',  ( 2.498364286285164049, 3.101379880023487486E-15, -25.32468857292395725 ) ) ;
#392 = CARTESIAN_POINT ( 'NONE',  ( 1.237132475159802070, 0.000000000000000000, 24.17020971217505476 ) ) ;
#393 = FACE_OUTER_BOUND ( 'NONE', #419, .T. ) ;
#394 = CARTESIAN_POINT ( 'NONE',  ( 1.774614254566054816, -43.46012349335153857, 21.73006174667575863 ) ) ;
#395 = LINE ( 'NONE', #593, #112 ) ;
#396 = EDGE_CURVE ( 'NONE', #235, #283, #244, .T. ) ;
#397 = CARTESIAN_POINT ( 'NONE',  ( 1.562314575179147624, 0.000000000000000000, 25.72868459148994802 ) ) ;
#398 = CARTESIAN_POINT ( 'NONE',  ( 0.2162776907041540908, 0.000000000000000000, 18.42295142630086957 ) ) ;
#399 = CARTESIAN_POINT ( 'NONE',  ( 1.790712687000136860, 3.277710880175590188E-15, -26.76454045736011622 ) ) ;
#400 = CARTESIAN_POINT ( 'NONE',  ( 2.586256266561930417, 3.151258807066017315E-15, -25.73198092103001855 ) ) ;
#401 = CARTESIAN_POINT ( 'NONE',  ( -0.7153956443832218959, 19.96662313858989890, -9.983311569294949450 ) ) ;
#402 = AXIS2_PLACEMENT_3D ( 'NONE', #600, #356, #81 ) ;
#403 = DIRECTION ( 'NONE',  ( 0.000000000000000000, 0.000000000000000000, 1.000000000000000000 ) ) ;
#404 = CARTESIAN_POINT ( 'NONE',  ( -0.5412466886489493145, 1.481784420125533983E-15, -12.09968801745294975 ) ) ;
#405 = CARTESIAN_POINT ( 'NONE',  ( 1.189469652234747210, -36.38852005182283733, 18.19426002591140801 ) ) ;
#406 = CARTESIAN_POINT ( 'NONE',  ( 2.766450457274120200, 3.264304520632450088E-15, -26.54559799080610105 ) ) ;
#407 = CARTESIAN_POINT ( 'NONE',  ( 1.506767343580682539, -50.93846381671132661, -25.46923190835567397 ) ) ;
#408 = CARTESIAN_POINT ( 'NONE',  ( 1.562314575179147624, 0.000000000000000000, 25.72868459148994802 ) ) ;
#409 = CARTESIAN_POINT ( 'NONE',  ( 1.342818427992043651, -6.047374317124637009E-15, 24.69027935783221039 ) ) ;
#410 = CARTESIAN_POINT ( 'NONE',  ( 0.002274735637413429715, 2.959558231652134603E-16, -2.416662693041531806 ) ) ;
#411 = MECHANICAL_DESIGN_GEOMETRIC_PRESENTATION_REPRESENTATION (  '', ( #307 ), #227 ) ;
#412 = CARTESIAN_POINT ( 'NONE',  ( 1.774614254566054816, 43.46012349335152436, -21.73006174667576218 ) ) ;
#413 = DIRECTION ( 'NONE',  ( -1.000000000000000000, -0.000000000000000000, -0.000000000000000000 ) ) ;
#414 = EDGE_CURVE ( 'NONE', #195, #4, #146, .T. ) ;
#415 = CARTESIAN_POINT ( 'NONE',  ( 0.6867326130578439436, 28.61875375264628474, -14.30937687632314059 ) ) ;
#416 = CARTESIAN_POINT ( 'NONE',  ( 0.0004630025517351124141, 3.999999414687225308, 1.999999707343612876 ) ) ;
#417 = CARTESIAN_POINT ( 'NONE',  ( 1.675246347709663963, 52.49453580911631434, -26.24726790455815717 ) ) ;
#418 = AXIS2_PLACEMENT_3D ( 'NONE', #36, #215, #403 ) ;
#419 = EDGE_LOOP ( 'NONE', ( #425, #197, #286, #232 ) ) ;
#420 = CARTESIAN_POINT ( 'NONE',  ( 2.657661304729749041, 3.191132782321116461E-15, -26.05757663795722578 ) ) ;
#421 = AXIS2_PLACEMENT_3D ( 'NONE', #516, #413, #3 ) ;
#422 = CARTESIAN_POINT ( 'NONE',  ( -0.9965810728732782398, 3.135351336865648362E-16, -2.560208656935699434 ) ) ;
#423 = SURFACE_STYLE_USAGE ( .BOTH. , #237 ) ;
#424 = CARTESIAN_POINT ( 'NONE',  ( 0.7413477098525417253, -5.281527359024013535E-15, 21.56347186266774685 ) ) ;
#425 = ORIENTED_EDGE ( 'NONE', *, *, #452, .F. ) ;
#426 = CARTESIAN_POINT ( 'NONE',  ( 2.748205244336714870, 3.240940372578911033E-15, -26.46428647701018733 ) ) ;
#427 = CARTESIAN_POINT ( 'NONE',  ( 0.2162776907041540908, -4.512321699013305022E-15, 18.42295142630086957 ) ) ;
#428 = VECTOR ( 'NONE', #25, 1000.000000000000000 ) ;
#429 = ORIENTED_EDGE ( 'NONE', *, *, #396, .T. ) ;
#430 = PRESENTATION_STYLE_ASSIGNMENT (( #423 ) ) ;
#431 = MANIFOLD_SOLID_BREP ( '\X2\65cb8f6c\X0\-\X2\858458c1\X0\1', #87 ) ;
#432 = CARTESIAN_POINT ( 'NONE',  ( -0.9839687634046162534, -8.869954049112579362E-16, 3.621433565697548929 ) ) ;
#433 = ORIENTED_EDGE ( 'NONE', *, *, #140, .T. ) ;
#434 = CARTESIAN_POINT ( 'NONE',  ( 2.748205244336714870, 0.000000000000000000, 26.46428647701018733 ) ) ;
#435 = CARTESIAN_POINT ( 'NONE',  ( 0.7413477098525417253, 2.640763679512006767E-15, -21.56347186266774685 ) ) ;
#436 = CARTESIAN_POINT ( 'NONE',  ( 0.01032457761036133063, -6.666598623572008719, -3.333299311786006580 ) ) ;
#437 = CARTESIAN_POINT ( 'NONE',  ( 0.6867326130578438326, 1.752393258938229182E-15, -14.30937687632314415 ) ) ;
#438 = CARTESIAN_POINT ( 'NONE',  ( 2.766450457274120200, 3.250898161089310381E-15, -26.54559799080610105 ) ) ;
#439 = CARTESIAN_POINT ( 'NONE',  ( -0.5412466886489493145, -24.19937603490589240, 12.09968801745294442 ) ) ;
#440 = CARTESIAN_POINT ( 'NONE',  ( -0.9999998931613687247, 1.836404102839302311E-16, 1.499537747632932350 ) ) ;
#441 = CARTESIAN_POINT ( 'NONE',  ( 2.711714818461893550, -52.60332689883659896, 26.30166344941828882 ) ) ;
#442 = CARTESIAN_POINT ( 'NONE',  ( -1.000121475212736977, 3.525117315881882707, 1.762558657940941798 ) ) ;
#443 = CARTESIAN_POINT ( 'NONE',  ( 0.9309566020158096533, 0.000000000000000000, 22.60787550022064707 ) ) ;
#444 = CARTESIAN_POINT ( 'NONE',  ( 0.0004630025517351124141, -3.999999414687225752, 1.999999707343612210 ) ) ;
#445 = CARTESIAN_POINT ( 'NONE',  ( 2.498364286285164049, 3.101379880023487486E-15, -25.32468857292395725 ) ) ;
#446 = CARTESIAN_POINT ( 'NONE',  ( -0.9941139337715241275, 5.651061591220627456, -2.825530795610313284 ) ) ;
#447 = CARTESIAN_POINT ( 'NONE',  ( 1.790712687000136860, -6.555421760351180377E-15, 26.76454045736011622 ) ) ;
#448 = CARTESIAN_POINT ( 'NONE',  ( -0.0001155631379337802064, 2.143131988107986849E-16, -1.750000073164049263 ) ) ;
#449 = CARTESIAN_POINT ( 'NONE',  ( 2.586256266561930417, -51.46396184206002289, -25.73198092103002210 ) ) ;
#450 = CARTESIAN_POINT ( 'NONE',  ( -0.9839687634046161424, 7.242867131395096969, -3.621433565697548040 ) ) ;
#451 = CARTESIAN_POINT ( 'NONE',  ( -0.9999998931613687247, 1.836687150780166123E-16, 1.499537747632932350 ) ) ;
#452 = EDGE_CURVE ( 'NONE', #341, #247, #533, .T. ) ;
#453 = CARTESIAN_POINT ( 'NONE',  ( 0.7413477098525417253, 43.12694372533548659, -21.56347186266774330 ) ) ;
#454 = CARTESIAN_POINT ( 'NONE',  ( 0.000000000000000000, -2.999999999999999112, -1.500000000000000666 ) ) ;
#455 = CARTESIAN_POINT ( 'NONE',  ( -1.000121475212736755, 2.158511818756828884E-16, -1.762558657940941798 ) ) ;
#456 = CARTESIAN_POINT ( 'NONE',  ( -0.9312268414686823981, 0.000000000000000000, 5.743425208877012800 ) ) ;
#457 = AXIS2_PLACEMENT_3D ( 'NONE', #113, #250, #603 ) ;
#458 = CARTESIAN_POINT ( 'NONE',  ( 1.562314575179147624, -51.45736918297988893, -25.72868459148995512 ) ) ;
#459 = CARTESIAN_POINT ( 'NONE',  ( 2.748205244336714870, 3.240940372578911033E-15, -26.46428647701018733 ) ) ;
#460 = CARTESIAN_POINT ( 'NONE',  ( 1.562314575179147624, -6.301710246247998023E-15, 25.72868459148994802 ) ) ;
#461 = CARTESIAN_POINT ( 'NONE',  ( 0.01032457761036133063, 4.082114332778806707E-16, -3.333299311786005692 ) ) ;
#462 = CARTESIAN_POINT ( 'NONE',  ( 0.000000000000000000, 0.000000000000000000, 1.500000000000000000 ) ) ;
#463 = CARTESIAN_POINT ( 'NONE',  ( 1.562314575179147624, 51.45736918297988893, -25.72868459148994447 ) ) ;
#464 = EDGE_CURVE ( 'NONE', #378, #341, #577, .T. ) ;
#465 = CARTESIAN_POINT ( 'NONE',  ( 2.240068411940153936, 2.951602448578047089E-15, -24.10166303160280776 ) ) ;
#466 = CARTESIAN_POINT ( 'NONE',  ( 2.240068411940153492, 48.20332606320560132, -24.10166303160280066 ) ) ;
#467 = CARTESIAN_POINT ( 'NONE',  ( 1.675246347709663741, 0.000000000000000000, 26.24726790455816428 ) ) ;
#468 = CARTESIAN_POINT ( 'NONE',  ( -3.852104597792695682E-05, 1.939024128516682403E-16, -1.583333357721349977 ) ) ;
#469 =( NAMED_UNIT ( * ) PLANE_ANGLE_UNIT ( ) SI_UNIT ( $, .RADIAN. ) );
#470 = CARTESIAN_POINT ( 'NONE',  ( 1.774614254566054816, 2.661165056334082429E-15, -21.73006174667576929 ) ) ;
#471 = CARTESIAN_POINT ( 'NONE',  ( -0.9941139337715241275, -6.920554489472890630E-16, 2.825530795610314172 ) ) ;
#472 = CARTESIAN_POINT ( 'NONE',  ( 1.562314575179147624, 3.150855123123999011E-15, -25.72868459148994802 ) ) ;
#473 = ORIENTED_EDGE ( 'NONE', *, *, #563, .T. ) ;
#474 = CARTESIAN_POINT ( 'NONE',  ( 0.01032457761036133063, 0.000000000000000000, 3.333299311786005692 ) ) ;
#475 = CARTESIAN_POINT ( 'NONE',  ( -0.9312268414686823981, 7.033667298193452575E-16, -5.743425208877012800 ) ) ;
#476 = EDGE_LOOP ( 'NONE', ( #11, #17, #433, #150 ) ) ;
#477 = CARTESIAN_POINT ( 'NONE',  ( 0.01032457761036133063, 4.082114332778806707E-16, -3.333299311786005692 ) ) ;
#478 = VECTOR ( 'NONE', #198, 1000.000000000000227 ) ;
#479 = EDGE_LOOP ( 'NONE', ( #14, #382, #106, #200 ) ) ;
#480 = EDGE_CURVE ( 'NONE', #247, #103, #395, .T. ) ;
#481 = CARTESIAN_POINT ( 'NONE',  ( 1.774614254566054816, 0.000000000000000000, 21.73006174667576929 ) ) ;
#482 = CARTESIAN_POINT ( 'NONE',  ( -0.9941139337715241275, -5.651061591220628344, 2.825530795610312840 ) ) ;
#483 = CARTESIAN_POINT ( 'NONE',  ( 0.7413477098525417253, 2.640763679512006767E-15, -21.56347186266774685 ) ) ;
#484 = CARTESIAN_POINT ( 'NONE',  ( 0.2620152912651191879, -19.65769030968556308, -9.828845154842785092 ) ) ;
#485 = CARTESIAN_POINT ( 'NONE',  ( 2.748205244336714870, 52.92857295402036044, 26.46428647701018733 ) ) ;
#486 = CARTESIAN_POINT ( 'NONE',  ( -0.7153956443832218959, 1.222603055822780178E-15, -9.983311569294951227 ) ) ;
#487 = DIRECTION ( 'NONE',  ( 0.9999998931613688358, 5.660958817277258721E-20, 0.0004622523670676833966 ) ) ;
#488 = FACE_OUTER_BOUND ( 'NONE', #336, .T. ) ;
#489 = CARTESIAN_POINT ( 'NONE',  ( -0.8883038768872704161, 8.332488842947314156E-16, -6.803993485100126470 ) ) ;
#490 = CARTESIAN_POINT ( 'NONE',  ( 1.733126233666433480, -6.492563220379267112E-15, 26.50790099194168548 ) ) ;
#491 = CARTESIAN_POINT ( 'NONE',  ( -3.852104597792695682E-05, 1.939024128516682403E-16, -1.583333357721349977 ) ) ;
#492 = CARTESIAN_POINT ( 'NONE',  ( 2.766450457274120200, -6.501796322178620762E-15, 26.54559799080610105 ) ) ;
#493 = CARTESIAN_POINT ( 'NONE',  ( -0.9999998931613689468, 1.836404102839302311E-16, -1.499537747632932350 ) ) ;
#494 = CARTESIAN_POINT ( 'NONE',  ( 1.790712687000136860, -53.52908091472021823, 26.76454045736009846 ) ) ;
#495 = CARTESIAN_POINT ( 'NONE',  ( 1.237132475159802070, 48.34041942435009531, 24.17020971217505476 ) ) ;
#496 = CARTESIAN_POINT ( 'NONE',  ( 1.733126233666433480, 3.246281610189633556E-15, -26.50790099194168548 ) ) ;
#497 = CARTESIAN_POINT ( 'NONE',  ( 2.748205244336714870, -52.92857295402037465, 26.46428647701017667 ) ) ;
#498 = CARTESIAN_POINT ( 'NONE',  ( -0.9996606229677894584, 4.059029323816376156, -2.029514661908188078 ) ) ;
#499 = ADVANCED_BREP_SHAPE_REPRESENTATION ( 'LED', ( #431, #90 ), #319 ) ;
#500 = CARTESIAN_POINT ( 'NONE',  ( 2.766450457274120200, 3.264304520632450088E-15, -26.54559799080610105 ) ) ;
#501 = CARTESIAN_POINT ( 'NONE',  ( 0.9309566020158096533, 45.21575100044127993, 22.60787550022064352 ) ) ;
#502 = CARTESIAN_POINT ( 'NONE',  ( 1.506767343580682539, 3.119081333330940272E-15, -25.46923190835566686 ) ) ;
#503 = CARTESIAN_POINT ( 'NONE',  ( 2.240068411940153936, 2.951602448578047089E-15, -24.10166303160280776 ) ) ;
#504 = CARTESIAN_POINT ( 'NONE',  ( 0.000000000000000000, 0.000000000000000000, 0.000000000000000000 ) ) ;
#505 = CARTESIAN_POINT ( 'NONE',  ( 1.237132475159802070, -5.919993991747089706E-15, 24.17020971217505476 ) ) ;
#506 = CARTESIAN_POINT ( 'NONE',  ( 2.657661304729749485, -52.11515327591443736, -26.05757663795722934 ) ) ;
#507 = CARTESIAN_POINT ( 'NONE',  ( -0.9965810728732781287, 5.120417313871397980, 2.560208656935699878 ) ) ;
#508 = CARTESIAN_POINT ( 'NONE',  ( 0.2162776907041540908, 0.000000000000000000, 18.42295142630086957 ) ) ;
#509 = CARTESIAN_POINT ( 'NONE',  ( 1.342818427992043651, 49.38055871566439947, -24.69027935783219974 ) ) ;
#510 = CARTESIAN_POINT ( 'NONE',  ( 0.01032457761036133063, 0.000000000000000000, 3.333299311786005692 ) ) ;
#511 = CARTESIAN_POINT ( 'NONE',  ( -0.0001155631379337802064, 3.500000146328097639, -1.750000073164048819 ) ) ;
#512 = DIRECTION ( 'NONE',  ( 0.000000000000000000, 0.000000000000000000, -1.000000000000000000 ) ) ;
#513 = ADVANCED_FACE ( 'NONE', ( #41 ), #274, .F. ) ;
#514 = CARTESIAN_POINT ( 'NONE',  ( 0.000000000000000000, 2.999999999999999112, 1.500000000000000000 ) ) ;
#515 = CARTESIAN_POINT ( 'NONE',  ( -0.9996606229677894584, -4.059029323816376156, 2.029514661908187634 ) ) ;
#516 = CARTESIAN_POINT ( 'NONE',  ( 1.790712687000136860, 0.000000000000000000, 0.000000000000000000 ) ) ;
#517 = CARTESIAN_POINT ( 'NONE',  ( 1.774614254566054816, 0.000000000000000000, 21.73006174667576929 ) ) ;
#518 = DIRECTION ( 'NONE',  ( 1.000000000000000000, 0.000000000000000000, 0.000000000000000000 ) ) ;
#519 = CARTESIAN_POINT ( 'NONE',  ( 2.240068411940153936, 0.000000000000000000, 24.10166303160280776 ) ) ;
#520 = CARTESIAN_POINT ( 'NONE',  ( -0.9999998931613687247, 0.000000000000000000, -1.499537747632932350 ) ) ;
#521 =( LENGTH_UNIT ( ) NAMED_UNIT ( * ) SI_UNIT ( .MILLI., .METRE. ) );
#522 = APPLICATION_PROTOCOL_DEFINITION ( 'draft international standard', 'automotive_design', 1998, #182 ) ;
#523 = CARTESIAN_POINT ( 'NONE',  ( -0.9735415701906983132, 5.084730633865526487E-16, -4.151997651409136125 ) ) ;
#524 = CARTESIAN_POINT ( 'NONE',  ( 0.2620152912651192434, 0.000000000000000000, 9.828845154842783316 ) ) ;
#525 = ORIENTED_EDGE ( 'NONE', *, *, #266, .T. ) ;
#526 = CARTESIAN_POINT ( 'NONE',  ( -0.0001155631379337802064, 2.143131988107986849E-16, -1.750000073164049263 ) ) ;
#527 = CARTESIAN_POINT ( 'NONE',  ( 0.2162776907041540908, 2.256160849506652511E-15, -18.42295142630086957 ) ) ;
#528 = ADVANCED_FACE ( 'NONE', ( #599 ), #240, .T. ) ;
#529 = ORIENTED_EDGE ( 'NONE', *, *, #78, .F. ) ;
#530 = CARTESIAN_POINT ( 'NONE',  ( 2.711714818461893550, 52.60332689883659896, -26.30166344941829948 ) ) ;
#531 = CARTESIAN_POINT ( 'NONE',  ( -0.9965810728732782398, 3.135351336865648362E-16, -2.560208656935699434 ) ) ;
#532 = ORIENTED_EDGE ( 'NONE', *, *, #155, .T. ) ;
#533 = B_SPLINE_CURVE_WITH_KNOTS ( 'NONE', 3,
 ( #576, #8, #526, #104, #291, #477, #61, #385, #99, #284, #470, #271, #391, #312, #541, #537, #459, #406 ),
 .UNSPECIFIED., .F., .F.,
 ( 4, 1, 1, 1, 1, 1, 1, 1, 1, 1, 1, 1, 1, 1, 1, 4 ),
 ( 0.000000000000000000, 0.009900990099009967030, 0.01980198019801976406, 0.02970297029702960445, 0.05940594059405951421, 0.1287128712871289382, 0.3564356435643585841, 0.5049504950495072864, 0.6633663366336627343, 0.8217821782178216239, 0.9306930693069321858, 0.9504950495049514503, 0.9702970297029722690, 0.9801980198019794033, 0.9900990099009921996, 1.000000000000000000 ),
 .UNSPECIFIED. ) ;
#534 = SURFACE_STYLE_FILL_AREA ( #101 ) ;
#535 = CARTESIAN_POINT ( 'NONE',  ( -0.9839687634046161424, -7.242867131395096081, -3.621433565697549817 ) ) ;
#536 = CARTESIAN_POINT ( 'NONE',  ( 2.586256266561930417, -6.302517614132034629E-15, 25.73198092103001855 ) ) ;
#537 = CARTESIAN_POINT ( 'NONE',  ( 2.711714818461893994, 3.221024795558105632E-15, -26.30166344941830303 ) ) ;
#538 = CARTESIAN_POINT ( 'NONE',  ( -0.5412466886489493145, -24.19937603490589240, -12.09968801745295153 ) ) ;
#539 = CARTESIAN_POINT ( 'NONE',  ( 0.0004630025517351123599, 2.449293239893999001E-16, -1.999999707343613098 ) ) ;
#540 = CARTESIAN_POINT ( 'NONE',  ( -1.000121475212736755, -4.317023637513657769E-16, 1.762558657940941798 ) ) ;
#541 = CARTESIAN_POINT ( 'NONE',  ( 2.657661304729749041, 3.191132782321116461E-15, -26.05757663795722578 ) ) ;
#542 =( BOUNDED_SURFACE ( )  B_SPLINE_SURFACE ( 3, 3, ( 
 ( #173, #126, #206, #254 ),
 ( #455, #390, #351, #540 ),
 ( #117, #184, #515, #568 ),
 ( #531, #108, #241, #344 ),
 ( #149, #295, #482, #471 ),
 ( #62, #535, #246, #432 ),
 ( #152, #196, #65, #111 ),
 ( #475, #574, #337, #105 ),
 ( #579, #102, #16, #13 ),
 ( #486, #349, #59, #386 ),
 ( #9, #538, #439, #56 ),
 ( #249, #383, #583, #586 ),
 ( #527, #24, #292, #427 ),
 ( #435, #163, #238, #424 ),
 ( #20, #202, #158, #193 ),
 ( #333, #269, #222, #505 ),
 ( #211, #543, #76, #409 ),
 ( #39, #407, #606, #119 ),
 ( #607, #458, #85, #460 ),
 ( #180, #220, #303, #28 ),
 ( #263, #123, #309, #490 ),
 ( #547, #72, #494, #447 ) ),
 .UNSPECIFIED., .F., .F., .T. ) 
 B_SPLINE_SURFACE_WITH_KNOTS ( ( 4, 2, 2, 2, 2, 2, 2, 2, 2, 2, 4 ),
 ( 4, 4 ),
 ( 0.000000000000000000, 0.03125000000000001388, 0.06250000000000002776, 0.1250000000000000555, 0.2500000000000001110, 0.5000000000000002220, 0.7500000000000005551, 0.8750000000000005551, 0.9375000000000005551, 0.9687500000000003331, 1.000000000000000000 ),
 ( 0.000000000000000000, 1.000000000000000000 ),
 .UNSPECIFIED. ) 
 GEOMETRIC_REPRESENTATION_ITEM ( )  RATIONAL_B_SPLINE_SURFACE ( (
 ( 1.000000000000000000, 0.3333333333333334259, 0.3333333333333334259, 1.000000000000000000),
 ( 1.000000000000000000, 0.3333333333333334259, 0.3333333333333334259, 1.000000000000000000),
 ( 1.000000000000000000, 0.3333333333333334259, 0.3333333333333334259, 1.000000000000000000),
 ( 1.000000000000000000, 0.3333333333333334259, 0.3333333333333334259, 1.000000000000000000),
 ( 1.000000000000000000, 0.3333333333333334259, 0.3333333333333334259, 1.000000000000000000),
 ( 1.000000000000000000, 0.3333333333333334259, 0.3333333333333334259, 1.000000000000000000),
 ( 1.000000000000000000, 0.3333333333333334259, 0.3333333333333334259, 1.000000000000000000),
 ( 1.000000000000000000, 0.3333333333333334259, 0.3333333333333334259, 1.000000000000000000),
 ( 1.000000000000000000, 0.3333333333333334259, 0.3333333333333334259, 1.000000000000000000),
 ( 1.000000000000000000, 0.3333333333333334259, 0.3333333333333334259, 1.000000000000000000),
 ( 1.000000000000000000, 0.3333333333333334259, 0.3333333333333334259, 1.000000000000000000),
 ( 1.000000000000000000, 0.3333333333333334259, 0.3333333333333334259, 1.000000000000000000),
 ( 1.000000000000000000, 0.3333333333333334259, 0.3333333333333334259, 1.000000000000000000),
 ( 1.000000000000000000, 0.3333333333333334259, 0.3333333333333334259, 1.000000000000000000),
 ( 1.000000000000000000, 0.3333333333333334259, 0.3333333333333334259, 1.000000000000000000),
 ( 1.000000000000000000, 0.3333333333333334259, 0.3333333333333334259, 1.000000000000000000),
 ( 1.000000000000000000, 0.3333333333333334259, 0.3333333333333334259, 1.000000000000000000),
 ( 1.000000000000000000, 0.3333333333333334259, 0.3333333333333334259, 1.000000000000000000),
 ( 1.000000000000000000, 0.3333333333333334259, 0.3333333333333334259, 1.000000000000000000),
 ( 1.000000000000000000, 0.3333333333333334259, 0.3333333333333334259, 1.000000000000000000),
 ( 1.000000000000000000, 0.3333333333333334259, 0.3333333333333334259, 1.000000000000000000),
 ( 1.000000000000000000, 0.3333333333333334259, 0.3333333333333334259, 1.000000000000000000) ) ) 
 REPRESENTATION_ITEM ( '' )  SURFACE ( )  );
#543 = CARTESIAN_POINT ( 'NONE',  ( 1.342818427992043651, -49.38055871566439947, -24.69027935783221750 ) ) ;
#544 = CARTESIAN_POINT ( 'NONE',  ( 0.2162776907041540908, 2.256160849506652511E-15, -18.42295142630086957 ) ) ;
#545 = CARTESIAN_POINT ( 'NONE',  ( -0.9941139337715241275, 0.000000000000000000, 2.825530795610314172 ) ) ;
#546 = PRODUCT ( 'LED', 'LED', '', ( #228 ) ) ;
#547 = CARTESIAN_POINT ( 'NONE',  ( 1.790712687000136860, 3.277710880175590188E-15, -26.76454045736011622 ) ) ;
#548 = CARTESIAN_POINT ( 'NONE',  ( -0.07540968798434957709, 1.998564002777249452E-15, -16.31951354601773474 ) ) ;
#549 = CARTESIAN_POINT ( 'NONE',  ( 2.766450457274120200, 0.000000000000000000, 26.54559799080610105 ) ) ;
#550 = CARTESIAN_POINT ( 'NONE',  ( 1.774614254566054816, 2.661165056334082429E-15, -21.73006174667576929 ) ) ;
#551 = CARTESIAN_POINT ( 'NONE',  ( -0.5412466886489493145, 24.19937603490589240, -12.09968801745294620 ) ) ;
#552 = DIRECTION ( 'NONE',  ( -1.000000000000000000, -0.000000000000000000, -0.000000000000000000 ) ) ;
#553 = CARTESIAN_POINT ( 'NONE',  ( 0.2162776907041540908, 36.84590285260173204, -18.42295142630086602 ) ) ;
#554 = CARTESIAN_POINT ( 'NONE',  ( -0.7153956443832218959, 1.222603055822780178E-15, -9.983311569294951227 ) ) ;
#555 = CARTESIAN_POINT ( 'NONE',  ( 2.240068411940153936, -5.903204897156094179E-15, 24.10166303160280776 ) ) ;
#556 = CARTESIAN_POINT ( 'NONE',  ( -0.7153956443832218959, 19.96662313858989890, 9.983311569294951227 ) ) ;
#557 = CARTESIAN_POINT ( 'NONE',  ( -0.9941139337715241275, 0.000000000000000000, 2.825530795610314172 ) ) ;
#558 = CARTESIAN_POINT ( 'NONE',  ( -0.9735415701906983132, 0.000000000000000000, 4.151997651409136125 ) ) ;
#559 = CARTESIAN_POINT ( 'NONE',  ( 0.6867326130578438326, 1.752393258938229182E-15, -14.30937687632314415 ) ) ;
#560 = CARTESIAN_POINT ( 'NONE',  ( 0.9309566020158096533, 0.000000000000000000, 22.60787550022064707 ) ) ;
#561 = CARTESIAN_POINT ( 'NONE',  ( 2.498364286285164049, 0.000000000000000000, 25.32468857292395725 ) ) ;
#562 =( BOUNDED_SURFACE ( )  B_SPLINE_SURFACE ( 3, 3, ( 
 ( #345, #454, #79, #596 ),
 ( #491, #73, #66, #260 ),
 ( #448, #172, #217, #350 ),
 ( #539, #297, #444, #177 ),
 ( #265, #363, #203, #33 ),
 ( #212, #436, #21, #387 ),
 ( #587, #160, #18, #342 ),
 ( #110, #484, #67, #251 ),
 ( #437, #22, #209, #26 ),
 ( #131, #165, #405, #301 ),
 ( #550, #161, #394, #306 ),
 ( #503, #168, #213, #555 ),
 ( #445, #346, #74, #83 ),
 ( #400, #449, #315, #536 ),
 ( #592, #506, #70, #114 ),
 ( #218, #86, #441, #597 ),
 ( #298, #29, #497, #178 ),
 ( #80, #364, #261, #492 ) ),
 .UNSPECIFIED., .F., .F., .T. ) 
 B_SPLINE_SURFACE_WITH_KNOTS ( ( 4, 1, 1, 1, 1, 1, 1, 1, 1, 1, 1, 1, 1, 1, 1, 4 ),
 ( 4, 4 ),
 ( 0.000000000000000000, 0.009900990099009967030, 0.01980198019801976406, 0.02970297029702960445, 0.05940594059405951421, 0.1287128712871289382, 0.3564356435643585841, 0.5049504950495072864, 0.6633663366336627343, 0.8217821782178216239, 0.9306930693069321858, 0.9504950495049514503, 0.9702970297029722690, 0.9801980198019794033, 0.9900990099009921996, 1.000000000000000000 ),
 ( 0.000000000000000000, 1.000000000000000000 ),
 .UNSPECIFIED. ) 
 GEOMETRIC_REPRESENTATION_ITEM ( )  RATIONAL_B_SPLINE_SURFACE ( (
 ( 1.000000000000000000, 0.3333333333333334259, 0.3333333333333334259, 1.000000000000000000),
 ( 1.000000000000000000, 0.3333333333333334259, 0.3333333333333334259, 1.000000000000000000),
 ( 1.000000000000000000, 0.3333333333333334259, 0.3333333333333334259, 1.000000000000000000),
 ( 1.000000000000000000, 0.3333333333333334259, 0.3333333333333334259, 1.000000000000000000),
 ( 1.000000000000000000, 0.3333333333333334259, 0.3333333333333334259, 1.000000000000000000),
 ( 1.000000000000000000, 0.3333333333333334259, 0.3333333333333334259, 1.000000000000000000),
 ( 1.000000000000000000, 0.3333333333333334259, 0.3333333333333334259, 1.000000000000000000),
 ( 1.000000000000000000, 0.3333333333333334259, 0.3333333333333334259, 1.000000000000000000),
 ( 1.000000000000000000, 0.3333333333333334259, 0.3333333333333334259, 1.000000000000000000),
 ( 1.000000000000000000, 0.3333333333333334259, 0.3333333333333334259, 1.000000000000000000),
 ( 1.000000000000000000, 0.3333333333333334259, 0.3333333333333334259, 1.000000000000000000),
 ( 1.000000000000000000, 0.3333333333333334259, 0.3333333333333334259, 1.000000000000000000),
 ( 1.000000000000000000, 0.3333333333333334259, 0.3333333333333334259, 1.000000000000000000),
 ( 1.000000000000000000, 0.3333333333333334259, 0.3333333333333334259, 1.000000000000000000),
 ( 1.000000000000000000, 0.3333333333333334259, 0.3333333333333334259, 1.000000000000000000),
 ( 1.000000000000000000, 0.3333333333333334259, 0.3333333333333334259, 1.000000000000000000),
 ( 1.000000000000000000, 0.3333333333333334259, 0.3333333333333334259, 1.000000000000000000),
 ( 1.000000000000000000, 0.3333333333333334259, 0.3333333333333334259, 1.000000000000000000) ) ) 
 REPRESENTATION_ITEM ( '' )  SURFACE ( )  );
#563 = EDGE_CURVE ( 'NONE', #4, #103, #604, .T. ) ;
#564 = AXIS2_PLACEMENT_3D ( 'NONE', #130, #82, #205 ) ;
#565 = B_SPLINE_CURVE_WITH_KNOTS ( 'NONE', 3,
 ( #585, #294, #252, #340, #12, #474, #379, #524, #23, #204, #481, #64, #248, #573, #330, #570, #434, #19 ),
 .UNSPECIFIED., .F., .F.,
 ( 4, 1, 1, 1, 1, 1, 1, 1, 1, 1, 1, 1, 1, 1, 1, 4 ),
 ( 0.000000000000000000, 0.009900990099009967030, 0.01980198019801976406, 0.02970297029702960445, 0.05940594059405951421, 0.1287128712871289382, 0.3564356435643585841, 0.5049504950495072864, 0.6633663366336627343, 0.8217821782178216239, 0.9306930693069321858, 0.9504950495049514503, 0.9702970297029722690, 0.9801980198019794033, 0.9900990099009921996, 1.000000000000000000 ),
 .UNSPECIFIED. ) ;
#566 = CARTESIAN_POINT ( 'NONE',  ( 2.586256266561930417, 51.46396184206002289, -25.73198092103001144 ) ) ;
#567 = AXIS2_PLACEMENT_3D ( 'NONE', #258, #302, #207 ) ;
#568 = CARTESIAN_POINT ( 'NONE',  ( -0.9996606229677894584, -4.970877269056971145E-16, 2.029514661908188522 ) ) ;
#569 = CARTESIAN_POINT ( 'NONE',  ( 2.766450457274120200, 0.000000000000000000, 0.000000000000000000 ) ) ;
#570 = CARTESIAN_POINT ( 'NONE',  ( 2.711714818461893994, 0.000000000000000000, 26.30166344941830303 ) ) ;
#571 = CARTESIAN_POINT ( 'NONE',  ( 1.790712687000136860, 53.52908091472021113, -26.76454045736010556 ) ) ;
#572 = DIRECTION ( 'NONE',  ( -1.000000000000000000, -0.000000000000000000, -0.000000000000000000 ) ) ;
#573 = CARTESIAN_POINT ( 'NONE',  ( 2.586256266561930417, 0.000000000000000000, 25.73198092103001855 ) ) ;
#574 = CARTESIAN_POINT ( 'NONE',  ( -0.9312268414686825091, -11.48685041775402382, -5.743425208877014576 ) ) ;
#575 = ORIENTED_EDGE ( 'NONE', *, *, #49, .F. ) ;
#576 = CARTESIAN_POINT ( 'NONE',  ( 0.000000000000000000, 0.000000000000000000, -1.500000000000000000 ) ) ;
#577 = CIRCLE ( 'NONE', #381, 1.500000000000000000 ) ;
#578 = ADVANCED_FACE ( 'NONE', ( #321 ), #375, .F. ) ;
#579 = CARTESIAN_POINT ( 'NONE',  ( -0.8883038768872704161, 8.332488842947314156E-16, -6.803993485100126470 ) ) ;
#580 = ORIENTED_EDGE ( 'NONE', *, *, #601, .T. ) ;
#581 = UNCERTAINTY_MEASURE_WITH_UNIT (LENGTH_MEASURE( 1.000000000000000082E-05 ), #51, 'distance_accuracy_value', 'NONE');
#582 =( NAMED_UNIT ( * ) PLANE_ANGLE_UNIT ( ) SI_UNIT ( $, .RADIAN. ) );
#583 = CARTESIAN_POINT ( 'NONE',  ( -0.07540968798434957709, -32.63902709203546948, 16.31951354601773119 ) ) ;
#584 = ORIENTED_EDGE ( 'NONE', *, *, #288, .F. ) ;
#585 = CARTESIAN_POINT ( 'NONE',  ( 0.000000000000000000, 1.836970198721029934E-16, 1.500000000000000000 ) ) ;
#586 = CARTESIAN_POINT ( 'NONE',  ( -0.07540968798434957709, -3.997128005554498903E-15, 16.31951354601773474 ) ) ;
#587 = CARTESIAN_POINT ( 'NONE',  ( 0.06454586886587748706, 7.449337640855488593E-16, -6.082845801778935524 ) ) ;
#588 = CARTESIAN_POINT ( 'NONE',  ( -0.9839687634046162534, 4.434977024556289681E-16, -3.621433565697548929 ) ) ;
#589 = LINE ( 'NONE', #164, #428 ) ;
#590 = CARTESIAN_POINT ( 'NONE',  ( -1.000121475212736755, 2.158511818756828884E-16, -1.762558657940941798 ) ) ;
#591 = CARTESIAN_POINT ( 'NONE',  ( 1.342818427992043651, 0.000000000000000000, 24.69027935783221039 ) ) ;
#592 = CARTESIAN_POINT ( 'NONE',  ( 2.657661304729749041, 3.191132782321116461E-15, -26.05757663795722578 ) ) ;
#593 = CARTESIAN_POINT ( 'NONE',  ( 2.766450457274120200, 3.250898161089310381E-15, -26.54559799080610105 ) ) ;
#594 = PRODUCT_RELATED_PRODUCT_CATEGORY ( 'part', '', ( #546 ) ) ;
#595 = CARTESIAN_POINT ( 'NONE',  ( 1.733126233666433480, 0.000000000000000000, 26.50790099194168548 ) ) ;
#596 = CARTESIAN_POINT ( 'NONE',  ( 0.000000000000000000, -3.673940397442059868E-16, 1.500000000000000000 ) ) ;
#597 = CARTESIAN_POINT ( 'NONE',  ( 2.711714818461893994, -6.442049591116211263E-15, 26.30166344941830303 ) ) ;
#598 = CONICAL_SURFACE ( 'NONE', #323, 26.54559799080610105, 0.2207305088925261838 ) ;
#599 = FACE_OUTER_BOUND ( 'NONE', #239, .T. ) ;
#600 = CARTESIAN_POINT ( 'NONE',  ( -0.9999998931613687247, 0.000000000000000000, 0.000000000000000000 ) ) ;
#601 = EDGE_CURVE ( 'NONE', #195, #247, #236, .T. ) ;
#602 = CARTESIAN_POINT ( 'NONE',  ( 0.9309566020158096533, 2.768666236686708042E-15, -22.60787550022064707 ) ) ;
#603 = DIRECTION ( 'NONE',  ( 0.000000000000000000, 0.000000000000000000, 1.000000000000000000 ) ) ;
#604 = CIRCLE ( 'NONE', #421, 26.76454045736011622 ) ;
#605 = CARTESIAN_POINT ( 'NONE',  ( -0.9996606229677894584, 0.000000000000000000, 2.029514661908188522 ) ) ;
#606 = CARTESIAN_POINT ( 'NONE',  ( 1.506767343580682539, -50.93846381671132661, 25.46923190835565265 ) ) ;
#607 = CARTESIAN_POINT ( 'NONE',  ( 1.562314575179147624, 3.150855123123999011E-15, -25.72868459148994802 ) ) ;
#608 = CARTESIAN_POINT ( 'NONE',  ( 1.506767343580682539, 50.93846381671132661, -25.46923190835566331 ) ) ;
#609 = CARTESIAN_POINT ( 'NONE',  ( 0.2620152912651192434, 0.000000000000000000, 9.828845154842783316 ) ) ;
#610 = CARTESIAN_POINT ( 'NONE',  ( 2.240068411940153492, 48.20332606320560132, 24.10166303160281132 ) ) ;
#611 = CARTESIAN_POINT ( 'NONE',  ( 0.06454586886587748706, 7.449337640855488593E-16, -6.082845801778935524 ) ) ;
ENDSEC;
END-ISO-10303-21;
